<svg id="Layer_1" data-name="Layer 1" xmlns="http://www.w3.org/2000/svg" viewBox="0 0 170 170">
  <defs>
    <style>
      .cls-1 {
        fill: none;
        stroke: #ffca07;
        stroke-miterlimit: 10;
      }

      .cls-1.v1 {
        filter: drop-shadow(1px 1px 2px rgb(0 0 0 / 0.4));
      }

      .cls-2, .cls-3 {
        fill: #ffca07;
      }

      .cls-3, .cls-5 {
        fill-rule: evenodd;
      }

      .cls-4, .cls-5 {
        fill: #fff;
      }
    </style>
  </defs>
  <g>
    <g>
      <circle class="cls-1 v1" cx="85.168" cy="84.845" r="75" transform="translate(-16.325 149.277) rotate(-77.3)"/>
      <circle class="cls-1" cx="85.168" cy="84.845" r="70.455" transform="translate(-12.19 155.37) rotate(-80.81)"/>
      <circle class="cls-1" cx="85.168" cy="84.845" r="52.273"/>
    </g>
    <g>
      <path class="cls-2" d="M38.861,49.217l-5.576-4.374-1.634,2.082-.746-.585,3.931-5.01.747.585-1.641,2.091,5.575,4.375Z"/>
      <path class="cls-2" d="M36.716,38.421l-.233.772-.665.69.308-1.292.741-.77,1.277-.354-.665.691Zm3.738,8.637L36.8,39.264l.794-.825,8.071,3.2-.84.873-2.4-1.012-2.33,2.421,1.143,2.324ZM39.683,43.1l1.889-1.963L39.387,40.2q-1-.426-1.6-.744A10.225,10.225,0,0,1,38.6,40.83ZM43.9,46.046l-.81-.779.78-.81.809.778Z"/>
      <path class="cls-2" d="M46.112,41.3l-5.068-6.235L43.4,33.156a7.285,7.285,0,0,1,1-.712A2.433,2.433,0,0,1,45.4,32.11a1.974,1.974,0,0,1,.989.2,2.615,2.615,0,0,1,1.469,2.455A3.129,3.129,0,0,1,46.475,36.8l-1.6,1.3,2.061,2.535Zm-1.833-3.941,1.611-1.31a2.2,2.2,0,0,0,.894-1.221,1.366,1.366,0,0,0-.345-1.111,1.446,1.446,0,0,0-.742-.509,1.192,1.192,0,0,0-.82.055,4.6,4.6,0,0,0-.815.571l-1.595,1.3Z"/>
      <path class="cls-2" d="M55.734,34.27l-1.667-3.255-.785.4-.33-.644.785-.4-1.666-3.253,2.468-1.264a6.645,6.645,0,0,1,1.321-.547,2.727,2.727,0,0,1,1.311-.026,3.273,3.273,0,0,1,1.472.789A5.4,5.4,0,0,1,59.8,27.626a5.211,5.211,0,0,1,.616,2.058,3.089,3.089,0,0,1-.243,1.569,3.418,3.418,0,0,1-.852,1.077,5.485,5.485,0,0,1-1,.618Zm.514-1.329,1.526-.783a4.1,4.1,0,0,0,1.045-.7,1.763,1.763,0,0,0,.447-.69,2.562,2.562,0,0,0,.065-1.173,4.888,4.888,0,0,0-.517-1.477,4.41,4.41,0,0,0-.875-1.246,2.5,2.5,0,0,0-.9-.554,1.86,1.86,0,0,0-.887-.075,4.6,4.6,0,0,0-1.2.465l-1.5.77,1.234,2.41,1.97-1.009.331.644-1.972,1.009Z"/>
      <path class="cls-2" d="M61.025,27.232a4.368,4.368,0,0,1-.017-3.312,3.653,3.653,0,0,1,2.246-1.982,3.855,3.855,0,0,1,2.069-.158,3.469,3.469,0,0,1,1.775.951,4.835,4.835,0,0,1,1.152,1.882,4.739,4.739,0,0,1,.255,2.228,3.367,3.367,0,0,1-.839,1.839,4,4,0,0,1-1.679,1.111,3.8,3.8,0,0,1-2.095.15,3.518,3.518,0,0,1-1.771-.967A4.551,4.551,0,0,1,61.025,27.232Zm1.041-.346a3.223,3.223,0,0,0,1.491,1.9,2.725,2.725,0,0,0,3.713-1.3,3.415,3.415,0,0,0-.056-2.517,4.15,4.15,0,0,0-.877-1.508,2.556,2.556,0,0,0-1.29-.752,2.629,2.629,0,0,0-1.486.092,2.714,2.714,0,0,0-1.579,1.372A3.464,3.464,0,0,0,62.066,26.886Z"/>
      <path class="cls-2" d="M69.405,28.45l1.366-8.5,1.121-.236L76.764,26.9l-1.186.25-1.417-2.189-3.289.691-.362,2.563Zm2.68-9.279-.778.163-1.554-1.24,1.292-.272ZM71,24.744l2.665-.561-1.278-2q-.585-.914-.9-1.513a10.212,10.212,0,0,1-.108,1.591Z"/>
      <path class="cls-2" d="M77.3,26.86l-.636-8.009,1.087-.086L82.46,24.72l-.5-6.289,1.017-.081.637,8.01-1.089.086-4.706-5.96.5,6.294Z"/>
      <path class="cls-2" d="M89.891,26.526l1.069-7.963,1.053.142-.438,3.269,4.138.557.44-3.271,1.053.142-1.068,7.963-1.055-.141.5-3.754-4.14-.556-.5,3.754Z"/>
      <path class="cls-2" d="M98.223,23.76a4.367,4.367,0,0,1,1.874-2.729,3.651,3.651,0,0,1,2.975-.347,3.85,3.85,0,0,1,1.791,1.049,3.481,3.481,0,0,1,.915,1.794,4.82,4.82,0,0,1-.126,2.2,4.749,4.749,0,0,1-1.062,1.975,3.371,3.371,0,0,1-1.738,1.032,4,4,0,0,1-2.013-.044,3.8,3.8,0,0,1-1.806-1.072,3.513,3.513,0,0,1-.9-1.8A4.529,4.529,0,0,1,98.223,23.76Zm1.052.311a3.216,3.216,0,0,0,.139,2.413,2.726,2.726,0,0,0,3.794,1.047,3.414,3.414,0,0,0,1.388-2.1,4.109,4.109,0,0,0,.14-1.739,2.555,2.555,0,0,0-.63-1.353,2.632,2.632,0,0,0-1.272-.772,2.726,2.726,0,0,0-2.082.226A3.469,3.469,0,0,0,99.275,24.071Z"/>
      <path class="cls-2" d="M104.445,29.551l5.972-6.2,1.055.446-.1,8.681-1.116-.472.086-2.606-3.1-1.309-1.759,1.9Zm3.421-2.136,2.509,1.061.094-2.375q.042-1.084.124-1.757a10.321,10.321,0,0,1-1,1.245Zm4.076-3.953-.731-.309-.569-1.907,1.217.514Z"/>
      <path class="cls-2" d="M111.832,32.751l4.052-6.937.943.549.462,7.576,3.181-5.447.88.514L117.3,35.944l-.941-.55-.46-7.581-3.184,5.452Z"/>
      <path class="cls-2" d="M128.424,41.423l.6.916A3.582,3.582,0,0,1,126.79,43a3.314,3.314,0,0,1-2.03-.928,3.812,3.812,0,0,1-1.2-1.818,3.308,3.308,0,0,1,.123-1.966,5.459,5.459,0,0,1,1.142-1.875,4.75,4.75,0,0,1,1.834-1.289A3.281,3.281,0,0,1,128.624,35a3.978,3.978,0,0,1,1.764.959,3.3,3.3,0,0,1,1.08,1.823,3.194,3.194,0,0,1-.323,2.047l-.938-.526a2.48,2.48,0,0,0,.265-1.489,2.156,2.156,0,0,0-.715-1.2,2.6,2.6,0,0,0-1.442-.72,2.344,2.344,0,0,0-1.449.288,4.828,4.828,0,0,0-1.229.967,4.938,4.938,0,0,0-.989,1.52,2.235,2.235,0,0,0-.088,1.471,2.622,2.622,0,0,0,.75,1.2,2.294,2.294,0,0,0,1.464.643A2.64,2.64,0,0,0,128.424,41.423Z"/>
      <path class="cls-2" d="M127.25,44.147l8.12-2.855.742.872-3.989,7.711-.785-.922,1.246-2.291L130.408,44.1l-2.426.905Zm4.015-.371,1.766,2.075,1.152-2.081q.524-.95.9-1.514a10.252,10.252,0,0,1-1.449.664Zm4.953-2.485-.745-.31-.621-.73,1.256.436.691.814.226,1.3-.621-.731Zm.736.078-.462-.543-.161-1.525.8.943Z"/>
      <path class="cls-2" d="M141.807,50.005l.585.888-3.874,2.558a5.473,5.473,0,0,1-1.755.831,2.348,2.348,0,0,1-1.513-.187,3.511,3.511,0,0,1-1.408-1.32,3.861,3.861,0,0,1-.693-1.756,2.225,2.225,0,0,1,.376-1.476,5.339,5.339,0,0,1,1.511-1.365l3.875-2.559.585.887-3.869,2.556a4.515,4.515,0,0,0-1.18,1.012,1.474,1.474,0,0,0-.27.979,2.336,2.336,0,0,0,.415,1.115,2.213,2.213,0,0,0,1.365,1.1,3.061,3.061,0,0,0,1.98-.711Z"/>
    </g>
    <g>
      <path class="cls-2" d="M28.031,118.894l6.712-4.418.584.889L32,117.555l5.522,1.142.793,1.2-4.573-1.025-2.058,5.567-.771-1.172,1.824-4.626-1.794-.394-2.326,1.531Z"/>
      <path class="cls-2" d="M33.053,126.18l6.049-5.287.7.8-2.484,2.172,2.749,3.143,2.484-2.171.7.8L37.2,130.926l-.7-.8,2.851-2.492L36.6,124.488l-2.851,2.493Z"/>
      <path class="cls-2" d="M48.659,130.482l.806.694-3.029,3.518a5.53,5.53,0,0,1-1.463,1.28,2.349,2.349,0,0,1-1.506.232,3.5,3.5,0,0,1-1.714-.886,3.861,3.861,0,0,1-1.146-1.5,2.216,2.216,0,0,1-.042-1.522,5.388,5.388,0,0,1,1.081-1.727l3.03-3.518.806.694-3.026,3.513a4.521,4.521,0,0,0-.859,1.3,1.476,1.476,0,0,0,.008,1.017,2.32,2.32,0,0,0,.7.959,2.219,2.219,0,0,0,1.614.688A3.066,3.066,0,0,0,45.633,134Z"/>
      <path class="cls-2" d="M51.241,141.984l1.359-8.51.994.579-1.137,6.095q-.135.734-.3,1.349c.328-.317.673-.622,1.036-.919l4.815-3.948.938.546-6.765,5.356Z"/>
      <path class="cls-2" d="M66.341,141.454l.421-1.065.983.388-.332.842a2.571,2.571,0,0,1-.625,1.043,1.96,1.96,0,0,1-1.979.3l-.564,1.428a5.387,5.387,0,0,1-.962,1.688,2.377,2.377,0,0,1-1.342.713,3.5,3.5,0,0,1-1.914-.273q-2.085-.825-2.113-2.468a5.352,5.352,0,0,1,.454-1.983l1.706-4.317.989.391-1.7,4.312a4.55,4.55,0,0,0-.385,1.509,1.448,1.448,0,0,0,.338.95,2.325,2.325,0,0,0,.981.68,2.157,2.157,0,0,0,1.75.119,3.122,3.122,0,0,0,1.215-1.718l1.7-4.311.989.391-.993,2.512a1.569,1.569,0,0,0,1.4-.177,1.776,1.776,0,0,0,.46-.761Zm-7.5,6.358.412-1.045,1.045.412-.413,1.045Z"/>
      <path class="cls-2" d="M73.871,147.519l.98.491a3.569,3.569,0,0,1-1.605,1.691,3.317,3.317,0,0,1-2.222.214,3.816,3.816,0,0,1-1.949-.972,3.3,3.3,0,0,1-.879-1.764,5.458,5.458,0,0,1,.05-2.194,4.724,4.724,0,0,1,.941-2.035,3.283,3.283,0,0,1,1.639-1.092,4.01,4.01,0,0,1,2.006-.053,3.3,3.3,0,0,1,1.848,1.037,3.187,3.187,0,0,1,.746,1.933l-1.075.014a2.491,2.491,0,0,0-.517-1.421,2.163,2.163,0,0,0-1.219-.679,2.6,2.6,0,0,0-1.608.1,2.348,2.348,0,0,0-1.111.976,4.81,4.81,0,0,0-.579,1.451,4.9,4.9,0,0,0-.094,1.812,2.22,2.22,0,0,0,.66,1.317,2.59,2.59,0,0,0,1.251.663,2.284,2.284,0,0,0,1.588-.176A2.64,2.64,0,0,0,73.871,147.519Z"/>
      <path class="cls-2" d="M79.9,151.143l.281-8.03,1.063.037-.14,3.983,4.127-3.844,1.44.051-3.482,3.135,3.351,4.9-1.4-.049-2.718-4.164L81.06,148.4l-.1,2.784Z"/>
      <path class="cls-2" d="M88.705,151.267l-.8-7.994,1.059-.106.328,3.283,4.155-.416-.328-3.282,1.058-.107.8,7.995-1.058.106-.376-3.768-4.157.415.378,3.769Z"/>
      <path class="cls-2" d="M97.162,150.313l1.111-8.535,1.115-.269,5.082,7.037-1.177.285-1.482-2.145-3.267.789-.286,2.573Zm.895-8.99.348-1.663,1.258-.3-.813,1.775Zm.582,5.237,2.648-.638-1.336-1.966q-.612-.9-.946-1.486a10.167,10.167,0,0,1-.061,1.593Z"/>
      <path class="cls-2" d="M106.508,147.864l-2.943-7.478,1.016-.4,6.237,4.326-2.31-5.87.948-.373,2.942,7.476-1.014.4-6.239-4.329,2.311,5.874Z"/>
      <path class="cls-2" d="M115.334,144.141l-3.985-6.977.923-.528,1.637,2.866,3.627-2.072-1.637-2.864.923-.528,3.985,6.978-.923.526-1.879-3.288-3.627,2.07,1.879,3.289Z"/>
      <path class="cls-2" d="M125.912,137.423l-5.219-6.107.808-.691,2.143,2.508,3.176-2.714-2.144-2.508.809-.69,5.219,6.107-.809.692-2.459-2.88-3.176,2.714,2.461,2.88Z"/>
      <path class="cls-2" d="M129.329,122.316l-.52.6-1.989-.05.866-1Zm.548,6.408a4.373,4.373,0,0,1-1.661-2.866,3.657,3.657,0,0,1,.965-2.836,3.858,3.858,0,0,1,1.717-1.166,3.5,3.5,0,0,1,2.012-.056,4.821,4.821,0,0,1,1.936,1.062,4.737,4.737,0,0,1,1.327,1.806,3.36,3.36,0,0,1,.186,2.014,3.974,3.974,0,0,1-.905,1.8,3.8,3.8,0,0,1-1.743,1.172,3.519,3.519,0,0,1-2.018.04A4.521,4.521,0,0,1,129.877,128.724Zm.73-.817a3.219,3.219,0,0,0,2.241.91,2.722,2.722,0,0,0,2.574-2.975,3.409,3.409,0,0,0-1.3-2.156,4.1,4.1,0,0,0-1.51-.873,2.543,2.543,0,0,0-1.493-.013,2.628,2.628,0,0,0-1.244.819,2.718,2.718,0,0,0-.689,1.975A3.471,3.471,0,0,0,130.607,127.907Z"/>
      <path class="cls-2" d="M138.987,123.992l-5.078-6.95.622-.962,8.533,1.593-.656,1.017-2.553-.531-1.821,2.823,1.565,2.06Zm-1.515-3.738,1.476-2.289-2.324-.5q-1.059-.228-1.709-.425a10.29,10.29,0,0,1,1.056,1.2Z"/>
    </g>
    <polygon class="cls-2" points="23.859 81.186 25.089 84.507 28.605 84.658 25.848 86.862 26.792 90.277 23.859 88.317 20.926 90.277 21.87 86.862 19.113 84.658 22.63 84.507 23.859 81.186"/>
    <polygon class="cls-2" points="146.732 81.186 147.962 84.507 151.478 84.658 148.722 86.862 149.666 90.277 146.732 88.317 143.799 90.277 144.743 86.862 141.986 84.658 145.503 84.507 146.732 81.186"/>
  </g>
  <g>
    <g>
      <path class="cls-3" d="M85.023,36.993c-25.607.066-46.314,21.546-46.241,47.981S59.676,132.768,85.3,132.7s46.332-21.553,46.26-47.983S110.649,36.917,85.023,36.993Z"/>
      <path class="cls-4" d="M85.165,135.044c-26.8,0-48.66-22.46-48.73-50.064A50.663,50.663,0,0,1,50.583,49.467a47.681,47.681,0,0,1,34.434-14.82h.142c26.8,0,48.666,22.456,48.742,50.061a50.649,50.649,0,0,1-14.153,35.511A47.712,47.712,0,0,1,85.3,135.043Zm-.006-95.706H85.03A43.023,43.023,0,0,0,53.961,52.724,45.986,45.986,0,0,0,41.127,84.967c.063,25.024,19.82,45.383,44.038,45.384h.124a43.06,43.06,0,0,0,31.082-13.389,45.971,45.971,0,0,0,12.838-32.241C129.14,59.7,109.379,39.338,85.159,39.338Z"/>
    </g>
    <g>
      <path class="cls-3" d="M131.555,84.714c.072,26.43-20.64,47.914-46.26,47.983S38.848,111.4,38.782,84.974,59.416,37.059,85.023,36.993C110.649,36.917,131.482,58.286,131.555,84.714Z"/>
      <path class="cls-3" d="M128.244,84.727c.067,24.55-19.172,44.489-42.96,44.559s-43.137-19.773-43.21-44.32S61.241,40.467,85.036,40.4,128.165,60.174,128.244,84.727Z"/>
      <path class="cls-4" d="M85.284,129.941c-24.117.067-43.8-20.108-43.861-44.973S60.915,39.808,85.03,39.742,128.824,59.851,128.9,84.727C128.964,109.591,109.4,129.872,85.284,129.941Zm-.248-88.888c-23.39.066-42.363,19.764-42.3,43.909S61.882,128.7,85.284,128.63s42.368-19.758,42.3-43.9S108.432,40.99,85.036,41.053Z"/>
      <path class="cls-3" d="M112.638,84.769c.059,24.544-12.176,44.475-27.354,44.517s-27.53-19.82-27.6-44.36C57.616,60.37,69.856,40.437,85.036,40.4S112.565,60.219,112.638,84.769Z"/>
      <path class="cls-4" d="M85.284,129.72c-15.391.047-27.971-20.054-28.036-44.794C57.174,60.171,69.633,40,85.036,39.959S113,60.02,113.071,84.769,100.667,129.676,85.284,129.72Zm-.248-88.887C70.13,40.877,58.057,60.654,58.13,84.926c.065,24.257,12.234,43.963,27.154,43.921s26.978-19.812,26.912-44.078S99.948,40.8,85.036,40.833Z"/>
      <path class="cls-4" d="M85.284,129.72c-6.079.023-10.9-19.679-10.967-44.845s4.635-44.9,10.719-44.916S95.941,59.646,96.008,84.817,91.362,129.705,85.284,129.72Zm-.248-88.887c-4.81.014-9.917,17.715-9.85,44.038s5.281,43.992,10.1,43.976,9.921-17.706,9.849-44.03S89.851,40.821,85.036,40.833Z"/>
      <path class="cls-4" d="M84.239,60.811A51.085,51.085,0,0,1,55.6,52.2l.478-.725a50.569,50.569,0,0,0,56.931-.616l.5.719A51.03,51.03,0,0,1,84.239,60.811Z"/>
      <path class="cls-4" d="M84.287,77.331A65.818,65.818,0,0,1,46.033,65.512l.506-.71A64.941,64.941,0,0,0,84.287,76.455a64.541,64.541,0,0,0,38.622-12.568l.519.7A65.386,65.386,0,0,1,84.287,77.331Z"/>
      <path class="cls-4" d="M113.2,118.105a50.542,50.542,0,0,0-56.924-.3l-.5-.726a51.439,51.439,0,0,1,57.91.3Z"/>
      <path class="cls-4" d="M123.017,105.017A64.556,64.556,0,0,0,84.334,92.664,64.853,64.853,0,0,0,46.655,104.54l-.513-.713A65.789,65.789,0,0,1,84.329,91.784a65.482,65.482,0,0,1,39.214,12.532Z"/>
      <path class="cls-5" d="M108.788,84.714a23.835,23.835,0,0,1-47.668.134l-11.932.03c.344,19.812,16.271,35.749,35.872,35.695,19.583-.055,35.42-16.082,35.656-35.895Z"/>
      <polygon class="cls-3" points="56.88 89.621 58.045 91.972 60.631 92.334 58.763 94.164 59.21 96.751 56.89 95.536 54.582 96.763 55.018 94.177 53.139 92.358 55.736 91.977 56.88 89.621"/>
      <polygon class="cls-3" points="66.915 104.437 68.075 106.779 70.672 107.151 68.805 108.983 69.253 111.557 66.933 110.353 64.625 111.572 65.061 108.99 63.175 107.174 65.766 106.79 66.915 104.437"/>
      <polygon class="cls-3" points="84.292 110.806 85.434 113.08 87.941 113.446 86.13 115.219 86.57 117.724 84.311 116.552 82.063 117.736 82.492 115.228 80.679 113.464 83.175 113.084 84.292 110.806"/>
      <polygon class="cls-3" points="103.537 103.808 104.776 106.289 107.512 106.684 105.537 108.624 106.002 111.361 103.555 110.077 101.102 111.379 101.556 108.636 99.573 106.709 102.323 106.295 103.537 103.808"/>
      <polygon class="cls-3" points="113.277 89.047 114.522 91.53 117.26 91.93 115.283 93.859 115.754 96.6 113.301 95.319 110.849 96.615 111.308 93.875 109.321 91.953 112.062 91.537 113.277 89.047"/>
      <path class="cls-3" d="M98.8,88.424v1.028l-14.544.036V88.467a8.855,8.855,0,0,0,2.714-.556,2.268,2.268,0,0,0,1.106-2.194l-.03-9-10.338.027.023,9.006A2.3,2.3,0,0,0,78.805,87.9a8.3,8.3,0,0,0,2.774.575v1.02l-14.362.039V88.515a6.441,6.441,0,0,0,2.6-.6,2.307,2.307,0,0,0,.973-2.164l-.054-18.984a2.443,2.443,0,0,0-1.119-2.314,7.971,7.971,0,0,0-2.469-.5v-.958L81.5,62.951v.958a7.618,7.618,0,0,0-2.592.48,2.382,2.382,0,0,0-1.225,2.356l.024,8.091,10.338-.028-.018-8.088a2.4,2.4,0,0,0-1.208-2.313,7.472,7.472,0,0,0-2.636-.508v-.955l14.539-.039.005.954a7.265,7.265,0,0,0-2.554.481A2.383,2.383,0,0,0,94.981,66.7l.054,18.985a2.231,2.231,0,0,0,.98,2.157A8.8,8.8,0,0,0,98.8,88.424Z"/>
      <path class="cls-4" d="M99.241,89.885l-15.419.038-.007-1.849.388-.039a7.957,7.957,0,0,0,2.549-.5,1.825,1.825,0,0,0,.881-1.809l-.023-8.566-9.463.025.025,8.568a1.887,1.887,0,0,0,.857,1.777,7.614,7.614,0,0,0,2.581.513l.4.042.009,1.852-15.234.04-.007-1.861.4-.037a5.773,5.773,0,0,0,2.4-.526,1.888,1.888,0,0,0,.768-1.791l-.054-18.988a2.02,2.02,0,0,0-.889-1.933,7.527,7.527,0,0,0-2.308-.451l-.386-.045V62.558l15.227-.043,0,1.8-.417.027a6.878,6.878,0,0,0-2.422.438,1.972,1.972,0,0,0-.992,1.961l.03,7.649,9.463-.026-.018-7.648a1.986,1.986,0,0,0-.967-1.927,6.949,6.949,0,0,0-2.471-.456l-.405-.034V62.509l15.42-.046.005,1.807-.411.028a6.6,6.6,0,0,0-2.392.432,1.973,1.973,0,0,0-.95,1.969l.061,18.988c0,.916.242,1.5.749,1.774a8.179,8.179,0,0,0,2.624.529l.386.042Zm-14.549-.838,13.667-.037v-.2a7.785,7.785,0,0,1-2.558-.589,2.639,2.639,0,0,1-1.207-2.538L94.54,66.7a2.834,2.834,0,0,1,1.413-2.749,6.838,6.838,0,0,1,2.346-.5v-.108l-13.674.036V63.5a6.7,6.7,0,0,1,2.4.526,2.779,2.779,0,0,1,1.426,2.692l.025,8.523-11.215.03-.024-8.523A2.824,2.824,0,0,1,78.7,64a7.471,7.471,0,0,1,2.362-.5v-.109l-13.481.037v.132a7.091,7.091,0,0,1,2.237.508,2.83,2.83,0,0,1,1.347,2.694l.055,18.991a2.711,2.711,0,0,1-1.186,2.535,5.83,5.83,0,0,1-2.386.623V89.1l13.481-.036v-.187a6.6,6.6,0,0,1-2.543-.6,2.719,2.719,0,0,1-1.3-2.523l-.023-9.446,11.215-.028.029,9.44A2.674,2.674,0,0,1,87.175,88.3a7.725,7.725,0,0,1-2.483.555Z"/>
      <path class="cls-3" d="M99.29,93.971l1.654,1.216a27.247,27.247,0,0,1-6.531,5.316,19.018,19.018,0,0,1-8.851,2.2q-8.693.072-14.175-4.831A16.63,16.63,0,0,1,65.821,85,16.814,16.814,0,0,1,71.2,71.99q5.454-5.13,14.041-5.209a20.2,20.2,0,0,1,5.39.837c1.728.529,3.462,1.076,5.184,1.634a2.043,2.043,0,0,0,1.643-.7,5.307,5.307,0,0,0,.883-1.609l1.546-.006.025,11.806H98.486a19.106,19.106,0,0,0-4.864-6.882,11.514,11.514,0,0,0-7.928-3.349q-10.113.031-10.182,16.25-.034,7.26,2.455,11.075a8.908,8.908,0,0,0,3.552,3.119,10.9,10.9,0,0,0,4.816,1.2Q92.988,100.229,99.29,93.971Z"/>
      <path class="cls-4" d="M85.411,103.138c-5.82.021-10.63-1.646-14.322-4.944A17.143,17.143,0,0,1,65.374,85,17.382,17.382,0,0,1,70.9,71.672c3.7-3.48,8.532-5.278,14.345-5.326a20.4,20.4,0,0,1,5.511.851c1.716.527,3.418,1.061,5.129,1.62a1.626,1.626,0,0,0,1.251-.556,4.719,4.719,0,0,0,.81-1.492l.107-.272,2.273,0,.031,12.68L98.2,79.18l-.109-.269a18.828,18.828,0,0,0-4.75-6.728,11.147,11.147,0,0,0-7.643-3.239c-6.508.018-9.7,5.188-9.746,15.813-.019,4.734.779,8.381,2.38,10.834a8.546,8.546,0,0,0,3.384,2.972,10.755,10.755,0,0,0,4.628,1.149h.207c4.211-.01,8.4-2.048,12.44-6.048l.265-.266,2.357,1.724-.351.36a27.694,27.694,0,0,1-6.64,5.405,19.633,19.633,0,0,1-9.056,2.251Zm-.17-35.916c-5.577.046-10.206,1.758-13.735,5.088A16.479,16.479,0,0,0,66.256,85a16.282,16.282,0,0,0,5.419,12.547c3.516,3.151,8.135,4.737,13.729,4.722h.15a18.7,18.7,0,0,0,8.654-2.148,26.42,26.42,0,0,0,6.079-4.877l-.949-.694c-4.127,4-8.43,6.03-12.785,6.041h-.218a11.583,11.583,0,0,1-5.015-1.244,9.4,9.4,0,0,1-3.729-3.275c-1.685-2.6-2.537-6.405-2.507-11.311.035-11.057,3.607-16.671,10.6-16.689a12.029,12.029,0,0,1,8.235,3.462A19.482,19.482,0,0,1,98.769,78.3h.708l-.03-10.93h-.816a4.494,4.494,0,0,1-.871,1.492,2.487,2.487,0,0,1-1.945.828l-.132-.024q-2.585-.843-5.173-1.635A19.851,19.851,0,0,0,85.241,67.222Z"/>
      <path class="cls-3" d="M82.528,74.818l-4.821.018-.024-8.091a2.382,2.382,0,0,1,1.225-2.356,7.618,7.618,0,0,1,2.592-.48v-.958l-14.355.041v.958a7.971,7.971,0,0,1,2.469.5,2.443,2.443,0,0,1,1.119,2.314l.054,18.984a2.307,2.307,0,0,1-.973,2.164,6.441,6.441,0,0,1-2.6.6v1.018l14.362-.039v-1.02a8.3,8.3,0,0,1-2.774-.575,2.3,2.3,0,0,1-1.075-2.151l-.023-9.006,5.413-.016Z"/>
      <path class="cls-4" d="M82.016,89.932l-15.234.04-.007-1.861.4-.037a5.773,5.773,0,0,0,2.4-.526,1.888,1.888,0,0,0,.768-1.791l-.054-18.988a2.02,2.02,0,0,0-.889-1.933,7.527,7.527,0,0,0-2.308-.451l-.386-.045V62.558l15.227-.043,0,1.8-.417.027a6.878,6.878,0,0,0-2.422.438,1.972,1.972,0,0,0-.992,1.961l.03,7.649,4.708-.011.851,2.779-5.553.018.025,8.568a1.887,1.887,0,0,0,.857,1.777,7.614,7.614,0,0,0,2.581.513l.4.042ZM67.651,89.1l13.481-.036v-.187a6.6,6.6,0,0,1-2.543-.6,2.719,2.719,0,0,1-1.3-2.523l-.023-9.446,5.258-.014L82.2,75.258l-4.936.013-.024-8.523A2.824,2.824,0,0,1,78.7,64a7.471,7.471,0,0,1,2.362-.5v-.109l-13.481.037v.132a7.006,7.006,0,0,1,2.237.508,2.83,2.83,0,0,1,1.347,2.694l.055,18.991a2.711,2.711,0,0,1-1.186,2.535,5.83,5.83,0,0,1-2.386.623Z"/>
    </g>
  </g>
</svg>
