<svg xmlns="http://www.w3.org/2000/svg" viewBox="0 0 105.882 105.882">
  <defs>
    <style>
      .cls-1 {
        fill: none;
        stroke: #ffcb09;
        stroke-miterlimit: 10;
      }

      .cls-2, .cls-3 {
        fill: #ffcb09;
      }

      .cls-3, .cls-5 {
        fill-rule: evenodd;
      }

      .cls-4, .cls-5 {
        fill: #112342;
      }
    </style>
  </defs>
  <g id="Layer_2" data-name="Layer 2">
    <g id="Layer_1-2" data-name="Layer 1">
      <g>
        <g>
          <circle class="cls-1 v1" cx="52.941" cy="52.941" r="52.441" transform="translate(-10.542 92.632) rotate(-77.015)"/>
          <circle class="cls-1" cx="52.941" cy="52.941" r="49.263" transform="translate(-7.885 96.594) rotate(-80.666)"/>
          <circle class="cls-1" cx="52.941" cy="52.941" r="36.55"/>
        </g>
        <g>
          <path class="cls-2" d="M20.562,28.029l-3.9-3.058-1.143,1.456L15,26.018l2.748-3.5.522.409-1.147,1.463,3.9,3.058Z"/>
          <path class="cls-2" d="M19.063,20.48l-.163.54-.465.483.215-.9.518-.538.893-.248L19.6,20.3Zm2.613,6.04-2.553-5.45.555-.577,5.643,2.238-.587.61-1.681-.708-1.629,1.693.8,1.625Zm-.539-2.768,1.321-1.372-1.528-.657q-.7-.3-1.116-.52a7.085,7.085,0,0,1,.563.962Zm2.948,2.06-.566-.545.545-.566.566.544Z"/>
          <path class="cls-2" d="M25.632,22.5l-3.543-4.36L23.733,16.8a5.269,5.269,0,0,1,.7-.5,1.689,1.689,0,0,1,.7-.233,1.388,1.388,0,0,1,.691.136,1.831,1.831,0,0,1,1.027,1.717,2.186,2.186,0,0,1-.966,1.424l-1.118.909,1.441,1.772ZM24.35,19.739l1.127-.916a1.54,1.54,0,0,0,.625-.853.955.955,0,0,0-.241-.777,1.01,1.01,0,0,0-.519-.356.83.83,0,0,0-.573.039,3.167,3.167,0,0,0-.57.4l-1.115.906Z"/>
          <path class="cls-2" d="M32.36,17.578,31.194,15.3l-.548.282-.231-.451.549-.281L29.8,12.577l1.726-.883a4.6,4.6,0,0,1,.923-.383,1.9,1.9,0,0,1,.917-.018,2.292,2.292,0,0,1,1.029.551,3.754,3.754,0,0,1,.8,1.089,3.658,3.658,0,0,1,.432,1.439,2.175,2.175,0,0,1-.17,1.1,2.4,2.4,0,0,1-.6.754,3.828,3.828,0,0,1-.7.432Zm.359-.929,1.068-.547a2.9,2.9,0,0,0,.73-.491,1.241,1.241,0,0,0,.313-.482,1.792,1.792,0,0,0,.045-.82,3.423,3.423,0,0,0-.361-1.033A3.09,3.09,0,0,0,33.9,12.4a1.769,1.769,0,0,0-.631-.387,1.3,1.3,0,0,0-.621-.052,3.222,3.222,0,0,0-.837.325l-1.05.538.863,1.685,1.378-.7.231.45-1.379.706Z"/>
          <path class="cls-2" d="M36.06,12.657a3.056,3.056,0,0,1-.012-2.316,2.549,2.549,0,0,1,1.57-1.385,2.688,2.688,0,0,1,1.447-.111,2.429,2.429,0,0,1,1.241.665,3.375,3.375,0,0,1,.8,1.316,3.306,3.306,0,0,1,.179,1.557A2.361,2.361,0,0,1,40.7,13.67a2.805,2.805,0,0,1-1.174.777,2.667,2.667,0,0,1-1.465.1,2.462,2.462,0,0,1-1.238-.676A3.167,3.167,0,0,1,36.06,12.657Zm.727-.242a2.253,2.253,0,0,0,1.043,1.331,1.9,1.9,0,0,0,2.6-.911,2.386,2.386,0,0,0-.039-1.76,2.909,2.909,0,0,0-.613-1.055,1.787,1.787,0,0,0-.9-.525,1.832,1.832,0,0,0-1.039.064,1.9,1.9,0,0,0-1.1.959A2.419,2.419,0,0,0,36.787,12.415Z"/>
          <path class="cls-2" d="M41.919,13.508l.955-5.941.784-.166,3.407,5.025-.83.175-.991-1.531-2.3.484-.253,1.792Zm1.874-6.487-.544.114-1.087-.868.9-.19Zm-.763,3.9,1.864-.392L44,9.123q-.409-.639-.63-1.058A7.1,7.1,0,0,1,43.3,9.177Z"/>
          <path class="cls-2" d="M47.441,12.4,47,6.8l.76-.061,3.29,4.165L50.7,6.5l.711-.056.445,5.6-.762.061L47.8,7.94l.349,4.4Z"/>
          <path class="cls-2" d="M56.243,12.163,56.991,6.6l.736.1-.306,2.287,2.893.389.308-2.287.736.1-.747,5.568-.737-.1.352-2.625-2.894-.388-.353,2.624Z"/>
          <path class="cls-2" d="M62.069,10.23A3.052,3.052,0,0,1,63.38,8.321a2.555,2.555,0,0,1,2.08-.243,2.694,2.694,0,0,1,1.252.734,2.433,2.433,0,0,1,.639,1.254,3.358,3.358,0,0,1-.088,1.541,3.317,3.317,0,0,1-.742,1.381,2.362,2.362,0,0,1-1.216.722,2.8,2.8,0,0,1-1.407-.032,2.654,2.654,0,0,1-1.263-.749A2.45,2.45,0,0,1,62,11.668,3.164,3.164,0,0,1,62.069,10.23Zm.735.217a2.252,2.252,0,0,0,.1,1.687,1.905,1.905,0,0,0,2.652.732,2.383,2.383,0,0,0,.971-1.468,2.881,2.881,0,0,0,.1-1.216,1.778,1.778,0,0,0-.441-.946,1.834,1.834,0,0,0-.889-.54,1.905,1.905,0,0,0-1.455.158A2.428,2.428,0,0,0,62.8,10.447Z"/>
          <path class="cls-2" d="M66.42,14.279,70.6,9.944l.738.313-.071,6.07-.78-.33.06-1.822-2.164-.916-1.231,1.327Zm2.391-1.494,1.755.742.065-1.661q.03-.759.087-1.229a7.066,7.066,0,0,1-.7.871Zm2.851-2.764-.512-.216-.4-1.334.85.36Z"/>
          <path class="cls-2" d="M71.585,16.516l2.833-4.851.659.385.323,5.3,2.225-3.809.615.36-2.834,4.851-.658-.385-.322-5.3L72.2,16.876Z"/>
          <path class="cls-2" d="M83.186,22.579l.422.641a2.506,2.506,0,0,1-1.564.461,2.316,2.316,0,0,1-1.42-.649,2.663,2.663,0,0,1-.839-1.271,2.31,2.31,0,0,1,.086-1.375,3.806,3.806,0,0,1,.8-1.311,3.312,3.312,0,0,1,1.282-.9,2.306,2.306,0,0,1,1.374-.086,2.773,2.773,0,0,1,1.233.671,2.306,2.306,0,0,1,.755,1.274,2.234,2.234,0,0,1-.225,1.432l-.657-.368a1.737,1.737,0,0,0,.186-1.042,1.516,1.516,0,0,0-.5-.838,1.827,1.827,0,0,0-1.008-.5,1.647,1.647,0,0,0-1.014.2,3.385,3.385,0,0,0-.859.677,3.432,3.432,0,0,0-.691,1.063,1.554,1.554,0,0,0-.062,1.028,1.834,1.834,0,0,0,.524.84,1.605,1.605,0,0,0,1.024.449A1.837,1.837,0,0,0,83.186,22.579Z"/>
          <path class="cls-2" d="M82.365,24.484l5.678-2,.518.61-2.789,5.391-.549-.645.871-1.6-1.521-1.79-1.7.633Zm2.807-.259,1.235,1.451.806-1.456q.366-.663.628-1.058a7.226,7.226,0,0,1-1.013.465Zm3.463-1.738-.52-.216-.435-.511.878.3.484.569.158.913-.435-.512Zm.515.055-.323-.38L88.714,21.1l.562.66Z"/>
          <path class="cls-2" d="M92.544,28.58l.409.621-2.709,1.788a3.833,3.833,0,0,1-1.228.582,1.639,1.639,0,0,1-1.057-.131,2.455,2.455,0,0,1-.985-.923,2.693,2.693,0,0,1-.484-1.228,1.554,1.554,0,0,1,.263-1.032,3.74,3.74,0,0,1,1.056-.955l2.709-1.788.409.62-2.705,1.787a3.166,3.166,0,0,0-.825.708,1.027,1.027,0,0,0-.188.684,1.619,1.619,0,0,0,.29.78,1.549,1.549,0,0,0,.954.771,2.142,2.142,0,0,0,1.385-.5Z"/>
        </g>
        <g>
          <path class="cls-2" d="M12.99,76.748l4.693-3.089.408.621-2.327,1.532,3.862.8.554.842-3.2-.717-1.439,3.893-.539-.819,1.274-3.235L15.025,76.3,13.4,77.369Z"/>
          <path class="cls-2" d="M16.5,81.843l4.23-3.7.489.559-1.736,1.519,1.921,2.2L23.142,80.9l.489.56-4.23,3.7-.489-.56,1.994-1.742-1.922-2.2L16.99,82.4Z"/>
          <path class="cls-2" d="M27.413,84.851l.564.485L25.859,87.8a3.873,3.873,0,0,1-1.023.895,1.642,1.642,0,0,1-1.053.162,2.455,2.455,0,0,1-1.2-.619,2.7,2.7,0,0,1-.8-1.049,1.555,1.555,0,0,1-.029-1.065,3.768,3.768,0,0,1,.756-1.207l2.118-2.46.564.486L23.076,85.4a3.154,3.154,0,0,0-.6.906,1.035,1.035,0,0,0,.006.711,1.635,1.635,0,0,0,.491.671,1.553,1.553,0,0,0,1.129.48,2.136,2.136,0,0,0,1.2-.855Z"/>
          <path class="cls-2" d="M29.219,92.893l.95-5.95.694.405-.794,4.261q-.095.513-.208.944.343-.333.725-.643l3.366-2.76.656.381-4.73,3.746Z"/>
          <path class="cls-2" d="M39.776,92.523l.295-.746.687.272-.232.589a1.791,1.791,0,0,1-.437.729,1.369,1.369,0,0,1-1.384.207l-.394,1a3.747,3.747,0,0,1-.673,1.181,1.652,1.652,0,0,1-.938.5,2.444,2.444,0,0,1-1.338-.19q-1.458-.578-1.478-1.726a3.742,3.742,0,0,1,.318-1.387L35.4,89.93l.691.273L34.9,93.218a3.169,3.169,0,0,0-.269,1.056,1.009,1.009,0,0,0,.236.664,1.629,1.629,0,0,0,.685.475,1.508,1.508,0,0,0,1.224.083,2.183,2.183,0,0,0,.85-1.2l1.192-3.015.691.274-.694,1.757a1.1,1.1,0,0,0,.98-.124,1.233,1.233,0,0,0,.321-.533Zm-5.247,4.445.289-.73.73.288-.288.73Z"/>
          <path class="cls-2" d="M45.042,96.763l.685.344a2.5,2.5,0,0,1-1.122,1.182,2.318,2.318,0,0,1-1.554.15,2.677,2.677,0,0,1-1.363-.68,2.318,2.318,0,0,1-.615-1.233,3.828,3.828,0,0,1,.036-1.535,3.309,3.309,0,0,1,.657-1.422,2.3,2.3,0,0,1,1.146-.764,2.8,2.8,0,0,1,1.4-.037,2.313,2.313,0,0,1,1.292.725,2.233,2.233,0,0,1,.521,1.352l-.752.01a1.748,1.748,0,0,0-.361-1,1.514,1.514,0,0,0-.853-.474,1.821,1.821,0,0,0-1.124.069,1.644,1.644,0,0,0-.777.683,3.343,3.343,0,0,0-.4,1.014,3.433,3.433,0,0,0-.066,1.267,1.552,1.552,0,0,0,.462.921,1.814,1.814,0,0,0,.874.464,1.6,1.6,0,0,0,1.11-.123A1.851,1.851,0,0,0,45.042,96.763Z"/>
          <path class="cls-2" d="M49.256,99.3l.2-5.614.743.025-.1,2.785,2.886-2.687,1.007.035-2.435,2.192L53.9,99.459l-.98-.034-1.9-2.911-.95.863L50,99.323Z"/>
          <path class="cls-2" d="M55.414,99.384l-.559-5.59.74-.074.23,2.3,2.9-.291L58.5,93.43l.74-.074.558,5.59-.74.074L58.8,96.385l-2.907.29.264,2.636Z"/>
          <path class="cls-2" d="M61.327,98.717l.777-5.968.779-.188,3.554,4.921-.823.2-1.036-1.5-2.284.552-.2,1.8Zm.626-6.286.243-1.163.88-.212L62.507,92.3Zm.407,3.662,1.852-.446-.935-1.375q-.428-.627-.661-1.039a7.079,7.079,0,0,1-.043,1.114Z"/>
          <path class="cls-2" d="M67.862,97,65.8,91.776l.71-.28,4.362,3.025L69.26,90.416l.663-.261,2.057,5.228-.709.279-4.362-3.027,1.616,4.107Z"/>
          <path class="cls-2" d="M74.033,94.4l-2.786-4.879.645-.37,1.145,2,2.536-1.448-1.145-2,.646-.369,2.786,4.879-.646.368-1.313-2.3-2.536,1.448,1.313,2.3Z"/>
          <path class="cls-2" d="M81.429,89.7l-3.649-4.27.565-.484,1.5,1.754,2.221-1.9-1.5-1.754.566-.482,3.649,4.27-.566.483L82.5,85.311l-2.221,1.9L82,89.222Z"/>
          <path class="cls-2" d="M83.819,79.141l-.364.42-1.391-.035.606-.7Zm.383,4.48a3.052,3.052,0,0,1-1.161-2,2.554,2.554,0,0,1,.674-1.982,2.689,2.689,0,0,1,1.2-.815,2.433,2.433,0,0,1,1.407-.04,3.359,3.359,0,0,1,1.353.743,3.314,3.314,0,0,1,.928,1.262,2.349,2.349,0,0,1,.13,1.409A2.781,2.781,0,0,1,88.1,83.45a2.649,2.649,0,0,1-1.219.82,2.473,2.473,0,0,1-1.411.028A3.162,3.162,0,0,1,84.2,83.621Zm.511-.571a2.252,2.252,0,0,0,1.566.637,1.9,1.9,0,0,0,1.8-2.08,2.384,2.384,0,0,0-.908-1.508,2.866,2.866,0,0,0-1.056-.61,1.771,1.771,0,0,0-1.044-.009,1.833,1.833,0,0,0-.87.572,1.9,1.9,0,0,0-.482,1.381A2.429,2.429,0,0,0,84.713,83.05Z"/>
          <path class="cls-2" d="M90.572,80.313l-3.551-4.86.435-.673L93.422,75.9l-.458.711-1.786-.372-1.273,1.974L91,79.649ZM89.512,77.7l1.033-1.6-1.625-.351q-.743-.159-1.2-.3a7.153,7.153,0,0,1,.739.836Z"/>
        </g>
        <polygon class="cls-2" points="10.073 50.382 10.933 52.704 13.391 52.81 11.464 54.351 12.124 56.739 10.073 55.369 8.022 56.739 8.682 54.351 6.754 52.81 9.213 52.704 10.073 50.382"/>
        <polygon class="cls-2" points="95.987 50.382 96.847 52.704 99.306 52.81 97.378 54.351 98.038 56.739 95.987 55.369 93.937 56.739 94.596 54.351 92.669 52.81 95.128 52.704 95.987 50.382"/>
      </g>
      <g>
        <g>
          <path class="cls-3" d="M52.839,19.482c-17.9.046-32.383,15.065-32.332,33.549S35.116,86.449,53.03,86.4s32.395-15.07,32.345-33.55S70.757,19.429,52.839,19.482Z"/>
          <path class="cls-4" d="M52.938,88.04c-18.737,0-34.023-15.7-34.072-35.005A35.421,35.421,0,0,1,28.759,28.2,33.336,33.336,0,0,1,52.835,17.841h.1c18.74,0,34.028,15.7,34.082,35a35.418,35.418,0,0,1-9.9,24.83A33.363,33.363,0,0,1,53.034,88.04Zm0-66.918h-.089a30.081,30.081,0,0,0-21.724,9.359,32.154,32.154,0,0,0-8.974,22.545c.043,17.5,13.858,31.733,30.791,31.733h.087A30.105,30.105,0,0,0,74.758,75.4a32.145,32.145,0,0,0,8.977-22.543C83.687,35.357,69.87,21.122,52.934,21.122Z"/>
        </g>
        <g>
          <path class="cls-3" d="M85.375,52.849c.05,18.48-14.432,33.5-32.345,33.55S20.553,71.507,20.507,53.031s14.428-33.5,32.332-33.549S85.324,34.37,85.375,52.849Z"/>
          <path class="cls-3" d="M83.06,52.858c.047,17.166-13.406,31.107-30.038,31.157S22.86,70.189,22.809,53.025s13.4-31.114,30.04-31.16S83.005,35.69,83.06,52.858Z"/>
          <path class="cls-4" d="M53.022,84.472c-16.863.047-30.622-14.06-30.669-31.445S35.983,21.45,52.844,21.4s30.622,14.06,30.677,31.454S69.887,84.424,53.022,84.472Zm-.173-62.151c-16.355.046-29.621,13.819-29.58,30.7S36.659,83.6,53.022,83.555,82.646,69.741,82.6,52.86,69.207,22.277,52.849,22.321Z"/>
          <path class="cls-3" d="M72.148,52.887c.041,17.162-8.514,31.1-19.126,31.128S33.772,70.156,33.727,53,42.235,21.89,52.849,21.865,72.1,35.722,72.148,52.887Z"/>
          <path class="cls-4" d="M53.022,84.318C42.26,84.35,33.464,70.3,33.418,53s8.661-31.411,19.431-31.441S72.4,35.583,72.451,52.887,63.778,84.287,53.022,84.318Zm-.173-62.151C42.426,22.2,33.984,36.026,34.035,53s8.555,30.74,18.987,30.711S71.885,69.855,71.839,52.887,63.275,22.141,52.849,22.167Z"/>
          <path class="cls-4" d="M53.022,84.318c-4.25.016-7.622-13.76-7.669-31.356s3.241-31.393,7.5-31.406,7.625,13.765,7.671,31.365S57.272,84.308,53.022,84.318Zm-.173-62.151c-3.364.01-6.934,12.387-6.888,30.792s3.693,30.759,7.061,30.749,6.937-12.38,6.886-30.787S56.215,22.158,52.849,22.167Z"/>
          <path class="cls-4" d="M52.291,36.136a35.72,35.72,0,0,1-20.023-6.025l.334-.506a35.133,35.133,0,0,0,19.689,5.921,35.123,35.123,0,0,0,20.118-6.352l.347.5A35.678,35.678,0,0,1,52.291,36.136Z"/>
          <path class="cls-4" d="M52.324,47.687a46.021,46.021,0,0,1-26.747-8.264l.354-.5a45.4,45.4,0,0,0,26.393,8.148A45.127,45.127,0,0,0,79.33,38.287l.362.488A45.718,45.718,0,0,1,52.324,47.687Z"/>
          <path class="cls-4" d="M72.54,76.2a35.34,35.34,0,0,0-39.8-.207l-.347-.507a35.965,35.965,0,0,1,40.491.212Z"/>
          <path class="cls-4" d="M79.405,67.045a45.129,45.129,0,0,0-27.047-8.637,45.346,45.346,0,0,0-26.346,8.3l-.359-.5a46,46,0,0,1,26.7-8.42,45.785,45.785,0,0,1,27.419,8.762Z"/>
          <path class="cls-5" d="M69.456,52.849a16.665,16.665,0,0,1-33.33.094l-8.343.02A25.007,25.007,0,1,0,77.8,52.824Z"/>
          <polygon class="cls-3" points="33.161 56.28 33.976 57.924 35.784 58.177 34.478 59.457 34.791 61.266 33.169 60.416 31.554 61.274 31.859 59.466 30.545 58.194 32.362 57.928 33.161 56.28"/>
          <polygon class="cls-3" points="40.178 66.639 40.989 68.277 42.805 68.537 41.499 69.819 41.813 71.618 40.191 70.776 38.577 71.629 38.882 69.823 37.563 68.553 39.374 68.285 40.178 66.639"/>
          <polygon class="cls-3" points="52.328 71.093 53.127 72.683 54.879 72.939 53.613 74.179 53.921 75.93 52.341 75.11 50.769 75.939 51.069 74.185 49.802 72.951 51.547 72.686 52.328 71.093"/>
          <polygon class="cls-3" points="65.784 66.2 66.651 67.935 68.564 68.211 67.183 69.567 67.508 71.481 65.797 70.583 64.082 71.494 64.399 69.575 63.013 68.228 64.936 67.939 65.784 66.2"/>
          <polygon class="cls-3" points="72.595 55.879 73.465 57.615 75.38 57.895 73.998 59.244 74.327 61.16 72.611 60.264 70.897 61.17 71.218 59.255 69.829 57.911 71.745 57.62 72.595 55.879"/>
          <path class="cls-3" d="M62.472,55.443v.719l-10.17.025v-.714a6.192,6.192,0,0,0,1.9-.389,1.585,1.585,0,0,0,.774-1.533l-.022-6.3-7.228.019.016,6.3a1.609,1.609,0,0,0,.752,1.5,5.786,5.786,0,0,0,1.939.4v.713l-10.042.028v-.712a4.5,4.5,0,0,0,1.816-.418,1.615,1.615,0,0,0,.681-1.513L42.847,40.3a1.7,1.7,0,0,0-.782-1.618,5.559,5.559,0,0,0-1.726-.353v-.67l10.037-.029v.67a5.347,5.347,0,0,0-1.813.335,1.667,1.667,0,0,0-.856,1.648l.017,5.657,7.228-.019-.012-5.655A1.674,1.674,0,0,0,54.1,38.65a5.256,5.256,0,0,0-1.843-.355v-.668L62.418,37.6l0,.667a5.1,5.1,0,0,0-1.786.336,1.67,1.67,0,0,0-.833,1.652L59.84,53.53a1.561,1.561,0,0,0,.685,1.508A6.133,6.133,0,0,0,62.472,55.443Z"/>
          <path class="cls-4" d="M62.781,56.464,52,56.491,52,55.2l.271-.027a5.562,5.562,0,0,0,1.782-.353,1.275,1.275,0,0,0,.616-1.265l-.016-5.989-6.616.017.017,5.991a1.319,1.319,0,0,0,.6,1.243,5.343,5.343,0,0,0,1.8.358l.278.03,0,1.295-10.651.027-.005-1.3.279-.026a4.03,4.03,0,0,0,1.681-.367,1.318,1.318,0,0,0,.537-1.253L42.54,40.3a1.414,1.414,0,0,0-.622-1.352,5.265,5.265,0,0,0-1.613-.315l-.27-.032V37.357l10.646-.03,0,1.262-.291.019a4.806,4.806,0,0,0-1.694.306,1.379,1.379,0,0,0-.693,1.371l.021,5.348,6.616-.018-.013-5.347a1.388,1.388,0,0,0-.676-1.348,4.843,4.843,0,0,0-1.728-.318l-.283-.024V37.323l10.782-.032,0,1.264-.288.019a4.633,4.633,0,0,0-1.673.3,1.379,1.379,0,0,0-.663,1.377l.042,13.277c0,.64.169,1.048.524,1.24a5.72,5.72,0,0,0,1.835.37l.27.029Zm-10.173-.585,9.556-.026v-.137a5.418,5.418,0,0,1-1.788-.412,1.845,1.845,0,0,1-.845-1.774l-.037-13.275a1.981,1.981,0,0,1,.988-1.922,4.769,4.769,0,0,1,1.64-.351v-.076l-9.561.026v.084a4.71,4.71,0,0,1,1.681.368,1.942,1.942,0,0,1,1,1.882l.017,5.959-7.841.022-.017-5.96a1.975,1.975,0,0,1,1.022-1.924,5.249,5.249,0,0,1,1.652-.347V37.94l-9.426.026v.092a4.973,4.973,0,0,1,1.564.355,1.979,1.979,0,0,1,.942,1.884l.038,13.279a1.9,1.9,0,0,1-.829,1.772,4.077,4.077,0,0,1-1.668.436v.129l9.425-.026v-.131a4.624,4.624,0,0,1-1.778-.417,1.9,1.9,0,0,1-.909-1.765l-.016-6.6,7.841-.019.021,6.6a1.87,1.87,0,0,1-.933,1.8,5.379,5.379,0,0,1-1.736.388Z"/>
          <path class="cls-3" d="M62.815,59.322l1.156.85a19.047,19.047,0,0,1-4.566,3.717,13.3,13.3,0,0,1-6.189,1.536,14.1,14.1,0,0,1-9.911-3.378,11.628,11.628,0,0,1-3.892-8.995,11.755,11.755,0,0,1,3.761-9.1,13.96,13.96,0,0,1,9.818-3.642,14.173,14.173,0,0,1,3.769.585c1.208.37,2.42.753,3.624,1.143a1.429,1.429,0,0,0,1.149-.493,3.72,3.72,0,0,0,.617-1.125l1.082,0,.017,8.255h-1a13.367,13.367,0,0,0-3.4-4.812,8.054,8.054,0,0,0-5.544-2.342q-7.071.022-7.119,11.362-.024,5.076,1.717,7.744A6.224,6.224,0,0,0,50.389,62.8a7.643,7.643,0,0,0,3.368.836Q58.409,63.7,62.815,59.322Z"/>
          <path class="cls-4" d="M53.111,65.731A14.439,14.439,0,0,1,43.1,62.275a11.985,11.985,0,0,1-4-9.223,12.157,12.157,0,0,1,3.862-9.322A14.609,14.609,0,0,1,56.845,40.6c1.2.368,2.39.742,3.586,1.133a1.134,1.134,0,0,0,.875-.389,3.314,3.314,0,0,0,.566-1.043l.076-.19,1.589,0,.021,8.865-1.508,0-.076-.188a13.18,13.18,0,0,0-3.321-4.7,7.792,7.792,0,0,0-5.345-2.264c-4.55.012-6.78,3.627-6.814,11.056-.013,3.31.545,5.861,1.664,7.575a5.973,5.973,0,0,0,2.366,2.079,7.524,7.524,0,0,0,3.236.8h.145c2.945-.007,5.875-1.432,8.7-4.229l.186-.186,1.648,1.206-.246.251a19.351,19.351,0,0,1-4.642,3.779,13.719,13.719,0,0,1-6.333,1.574Zm-.119-25.113a13.674,13.674,0,0,0-9.6,3.558,11.524,11.524,0,0,0-3.671,8.87,11.383,11.383,0,0,0,3.789,8.773,13.844,13.844,0,0,0,9.6,3.3h.1a13.076,13.076,0,0,0,6.051-1.5,18.469,18.469,0,0,0,4.25-3.41l-.664-.485c-2.885,2.794-5.894,4.216-8.939,4.224h-.152a8.1,8.1,0,0,1-3.507-.87,6.584,6.584,0,0,1-2.608-2.29c-1.178-1.817-1.773-4.478-1.752-7.909.025-7.731,2.522-11.657,7.414-11.669a8.411,8.411,0,0,1,5.758,2.421,13.615,13.615,0,0,1,3.389,4.736h.495l-.021-7.642h-.571a3.119,3.119,0,0,1-.609,1.043,1.738,1.738,0,0,1-1.36.579l-.092-.017q-1.807-.59-3.617-1.143A13.9,13.9,0,0,0,52.992,40.618Z"/>
          <path class="cls-3" d="M51.1,45.93l-3.371.012-.017-5.657a1.667,1.667,0,0,1,.856-1.648,5.347,5.347,0,0,1,1.813-.335v-.67l-10.037.029v.67a5.559,5.559,0,0,1,1.726.353,1.7,1.7,0,0,1,.782,1.618l.039,13.274a1.615,1.615,0,0,1-.681,1.513,4.5,4.5,0,0,1-1.816.418v.712l10.042-.028v-.713a5.786,5.786,0,0,1-1.939-.4,1.609,1.609,0,0,1-.752-1.5l-.016-6.3,3.785-.011Z"/>
          <path class="cls-4" d="M50.736,56.5l-10.651.027-.005-1.3.279-.026a4.03,4.03,0,0,0,1.681-.367,1.318,1.318,0,0,0,.537-1.253L42.54,40.3a1.414,1.414,0,0,0-.622-1.352,5.265,5.265,0,0,0-1.613-.315l-.27-.032V37.357l10.646-.03,0,1.262-.291.019a4.806,4.806,0,0,0-1.694.306,1.379,1.379,0,0,0-.693,1.371l.021,5.348,3.291-.008.6,1.943-3.883.013.017,5.991a1.319,1.319,0,0,0,.6,1.243,5.343,5.343,0,0,0,1.8.358l.278.03Zm-10.043-.585,9.425-.026v-.131a4.624,4.624,0,0,1-1.778-.417,1.9,1.9,0,0,1-.909-1.765l-.016-6.6,3.676-.009-.225-.723-3.451.01-.017-5.96a1.975,1.975,0,0,1,1.022-1.924,5.249,5.249,0,0,1,1.652-.347V37.94l-9.426.026v.092a4.888,4.888,0,0,1,1.564.355,1.979,1.979,0,0,1,.942,1.884l.038,13.279a1.9,1.9,0,0,1-.829,1.772,4.077,4.077,0,0,1-1.668.436Z"/>
        </g>
      </g>
    </g>
  </g>
</svg>
