<?xml version="1.0" encoding="utf-8"?>
<!-- Generator: Adobe Illustrator 28.7.1, SVG Export Plug-In . SVG Version: 9.03 Build 54978)  -->
<svg version="1.0" id="Layer_1" xmlns="http://www.w3.org/2000/svg" xmlns:xlink="http://www.w3.org/1999/xlink" x="0px" y="0px"
	 viewBox="0 0 432 340" style="enable-background:new 0 0 432 340;" xml:space="preserve">
<style type="text/css">
	.st0{fill:#E0B356;}
	.st1{fill-rule:evenodd;clip-rule:evenodd;fill:#16616A;}
	.st2{fill:url(#SVGID_1_);}
	.st3{fill:url(#SVGID_00000165231633234322925320000005028497603371482804_);}
	.st4{fill:url(#SVGID_00000033334532092667439140000012935828038045466758_);}
	.st5{fill:url(#SVGID_00000174581127937182387000000012869774328642911131_);}
	.st6{fill:url(#SVGID_00000075843833802062994300000015892132913153717890_);}
	.st7{fill:url(#SVGID_00000152980115535763412630000001796044437600210878_);}
	.st8{fill:url(#SVGID_00000086689378440885826270000013144223633835161739_);}
	.st9{fill:url(#SVGID_00000142870735327669972580000008007718423635110313_);}
	.st10{fill:url(#SVGID_00000101799704214394697650000013746812451278658711_);}
	.st11{fill:url(#SVGID_00000147195721565336839660000003247589559099858356_);}
	.st12{fill:url(#SVGID_00000121986613189061722820000017363106161658856357_);}
	.st13{fill:url(#SVGID_00000087376881957083696860000010648202961681842304_);}
	.st14{fill:url(#SVGID_00000065755862131515492910000014247699469026355613_);}
	.st15{fill:#16616A;}
</style>
<g>
	<g>
		<path class="st0" d="M65.6,331.9h-3.4V310h3.7l12.4,18.5h-1.2V310h3.4v21.9h-3.7l-12.5-18.5h1.2V331.9z"/>
		<path class="st0" d="M92.5,332.4c-1.6,0-3.1-0.3-4.3-1c-1.3-0.7-2.2-1.7-3-2.9c-0.7-1.2-1.1-2.6-1.1-4.2c0-1.6,0.4-3,1.1-4.2
			c0.7-1.2,1.7-2.2,3-2.9c1.3-0.7,2.7-1,4.3-1c0.4,0,0.8,0,1.1,0.1c0.4,0,0.7,0.1,1.1,0.2c0.4,0.1,0.8,0.1,1.1,0.2s0.6,0.1,1,0.1
			c0.9,0,1.6-0.2,2-0.5c0.4-0.3,0.6-0.9,0.6-1.8v-1.3h2.9v1.2c0,1.5-0.4,2.6-1.1,3.4c-0.7,0.8-1.9,1.2-3.5,1.3l0.5-0.8
			c0.8,0.7,1.5,1.6,1.9,2.7c0.5,1.1,0.7,2.2,0.7,3.5c0,1.6-0.4,3-1.1,4.2s-1.7,2.2-2.9,2.9S94.2,332.4,92.5,332.4z M92.5,329.5
			c1,0,1.8-0.2,2.5-0.7c0.7-0.5,1.3-1.1,1.7-1.9c0.4-0.8,0.6-1.7,0.6-2.7c0-1-0.2-1.9-0.6-2.7c-0.4-0.8-1-1.4-1.7-1.9
			c-0.7-0.4-1.6-0.7-2.5-0.7c-0.9,0-1.8,0.2-2.5,0.7c-0.7,0.4-1.3,1.1-1.7,1.9c-0.4,0.8-0.6,1.7-0.6,2.7c0,1,0.2,2,0.6,2.7
			c0.4,0.8,1,1.4,1.7,1.9C90.8,329.3,91.6,329.5,92.5,329.5z"/>
		<path class="st0" d="M107.1,313.4c-0.6,0-1.1-0.2-1.5-0.6s-0.6-0.9-0.6-1.5c0-0.6,0.2-1.1,0.6-1.5c0.4-0.4,0.9-0.6,1.5-0.6
			c0.6,0,1.1,0.2,1.5,0.6c0.4,0.4,0.6,0.9,0.6,1.5c0,0.6-0.2,1.1-0.6,1.5C108.2,313.2,107.7,313.4,107.1,313.4z M108.8,331.9h-3.4
			v-15.3h3.4V331.9z"/>
		<path class="st0" d="M134.6,330.2c0,1.6-0.4,3-1.1,4.2s-1.7,2.2-3,2.9c-1.3,0.7-2.7,1-4.4,1c-1.5,0-2.8-0.2-4-0.7
			c-1.2-0.5-2.2-1.1-3-2l2-2.3c0.6,0.7,1.3,1.2,2.1,1.6c0.8,0.4,1.7,0.6,2.8,0.6c1.1,0,2-0.2,2.8-0.6c0.8-0.4,1.4-1,1.8-1.8
			c0.4-0.8,0.6-1.7,0.6-2.7v-5.9c0-1.2-0.2-2.2-0.7-3c-0.4-0.8-1-1.4-1.7-1.8c-0.7-0.4-1.5-0.6-2.4-0.6c-0.9,0-1.8,0.2-2.5,0.7
			c-0.7,0.4-1.3,1.1-1.7,1.8c-0.4,0.8-0.6,1.6-0.6,2.6c0,1,0.2,1.9,0.6,2.6c0.4,0.8,1,1.3,1.7,1.8c0.7,0.4,1.6,0.6,2.6,0.6
			c0.8,0,1.6-0.2,2.3-0.5s1.3-0.8,1.7-1.4s0.7-1.3,0.8-2.1l0.7,0.6c0.1,1.2-0.1,2.3-0.6,3.3c-0.5,1-1.3,1.7-2.3,2.3
			c-1,0.6-2.2,0.8-3.5,0.8c-1.5,0-2.8-0.3-3.9-1c-1.2-0.7-2.1-1.6-2.8-2.8c-0.7-1.2-1-2.6-1-4.1c0-1.6,0.3-3,1-4.2
			c0.7-1.2,1.6-2.1,2.8-2.8s2.5-1,3.9-1c1.1,0,2.1,0.2,2.9,0.6c0.9,0.4,1.6,1,2.2,1.8s1,1.7,1.1,2.8h-0.7v-4.7h3.4V330.2z"/>
		<path class="st0" d="M140.1,313.4c-0.6,0-1.1-0.2-1.5-0.6s-0.6-0.9-0.6-1.5c0-0.6,0.2-1.1,0.6-1.5c0.4-0.4,0.9-0.6,1.5-0.6
			c0.6,0,1.1,0.2,1.5,0.6c0.4,0.4,0.6,0.9,0.6,1.5c0,0.6-0.2,1.1-0.6,1.5C141.2,313.2,140.7,313.4,140.1,313.4z M141.8,331.9h-3.4
			v-15.3h3.4V331.9z"/>
		<path class="st0" d="M150.8,332.4c-1.2,0-2.2-0.2-3.1-0.6c-0.9-0.4-1.6-1-2.1-1.7c-0.5-0.7-0.7-1.6-0.7-2.6c0-1.1,0.3-2,0.9-2.7
			c0.6-0.7,1.5-1.3,2.6-1.7s2.4-0.6,3.8-0.6h4.3v2.4h-4c-1.2,0-2.2,0.2-2.9,0.6c-0.7,0.4-1.1,1.1-1.1,1.9c0,0.8,0.3,1.4,0.9,1.8
			c0.6,0.4,1.3,0.7,2.2,0.7c0.9,0,1.7-0.2,2.4-0.6c0.7-0.4,1.3-0.9,1.8-1.5c0.4-0.6,0.7-1.4,0.8-2.2l1.1,0.5c0,1.2-0.3,2.4-0.9,3.3
			c-0.6,1-1.4,1.7-2.4,2.3C153.3,332.1,152.1,332.4,150.8,332.4z M159.4,331.9h-3.2v-3l-0.2-0.6v-5.7c0-1.1-0.4-2-1.1-2.7
			s-1.7-1-3-1c-0.9,0-1.8,0.2-2.6,0.6c-0.8,0.4-1.5,0.9-2,1.5l-2-2.1c0.8-0.8,1.8-1.5,2.9-2c1.1-0.5,2.4-0.7,3.7-0.7
			c1.5,0,2.7,0.3,3.8,0.8c1.1,0.5,1.9,1.2,2.6,2.2c0.6,0.9,0.9,2.1,0.9,3.4V331.9z M157.7,308.6l-4.4,5.3h-2.9l3.5-5.3H157.7z"/>
		<path class="st0" d="M178.4,319.4h-10.3v-2.8h10.3V319.4z M178.6,331.9h-3.8c-1.3,0-2.3-0.3-2.9-1c-0.7-0.7-1-1.6-1-2.9v-15.6h3.4
			v15.1c0,0.5,0.1,0.9,0.4,1.2c0.2,0.3,0.6,0.4,1.2,0.4h2.7V331.9z"/>
		<path class="st0" d="M190.6,316.3v3.2h-0.7c-0.9,0-1.8,0.2-2.5,0.6s-1.3,1-1.7,1.9s-0.6,2-0.6,3.4v6.5h-3.4v-15.3h3.4v4.9h-0.5
			c0.2-1.3,0.6-2.4,1.2-3.1c0.6-0.8,1.3-1.3,2.1-1.6c0.8-0.3,1.6-0.5,2.4-0.5H190.6z"/>
		<path class="st0" d="M195.1,313.4c-0.6,0-1.1-0.2-1.5-0.6s-0.6-0.9-0.6-1.5c0-0.6,0.2-1.1,0.6-1.5c0.4-0.4,0.9-0.6,1.5-0.6
			c0.6,0,1.1,0.2,1.5,0.6c0.4,0.4,0.6,0.9,0.6,1.5c0,0.6-0.2,1.1-0.6,1.5C196.2,313.2,195.7,313.4,195.1,313.4z M195.1,339.4
			c-0.6,0-1.1-0.2-1.5-0.6c-0.4-0.4-0.6-0.9-0.6-1.4c0-0.6,0.2-1.1,0.6-1.5c0.4-0.4,0.9-0.6,1.5-0.6c0.6,0,1.1,0.2,1.5,0.6
			c0.4,0.4,0.6,0.9,0.6,1.5c0,0.6-0.2,1-0.6,1.4C196.2,339.2,195.7,339.4,195.1,339.4z M196.8,331.9h-3.4v-15.3h3.4V331.9z"/>
		<path class="st0" d="M231.2,331.9h-3.4V323c0-1.3-0.3-2.3-0.8-3c-0.6-0.7-1.3-1-2.3-1c-0.7,0-1.3,0.2-2,0.6
			c-0.6,0.4-1.1,1-1.5,1.8s-0.6,1.9-0.6,3.2v7.3h-3.4V323c0-1.3-0.3-2.3-0.8-3c-0.6-0.7-1.3-1-2.3-1c-0.7,0-1.4,0.2-2,0.6
			c-0.6,0.4-1.1,1-1.5,1.8c-0.4,0.8-0.6,1.9-0.6,3.2v7.3h-3.4v-15.3h3.4v3.5l-0.2,0c0.3-1,0.7-1.8,1.3-2.4c0.6-0.6,1.2-1,1.9-1.2
			s1.4-0.4,2.1-0.4c1.3,0,2.4,0.4,3.3,1.1c0.9,0.7,1.5,1.8,1.7,3.2l-0.4,0c0.3-1.1,0.8-1.9,1.4-2.6c0.6-0.6,1.3-1.1,2.1-1.3
			c0.8-0.3,1.6-0.4,2.3-0.4c1.8,0,3.2,0.6,4.2,1.7s1.5,2.8,1.5,4.9V331.9z"/>
		<path class="st0" d="M240,332.4c-1.2,0-2.2-0.2-3.1-0.6c-0.9-0.4-1.6-1-2.1-1.7c-0.5-0.7-0.7-1.6-0.7-2.6c0-1.1,0.3-2,0.9-2.7
			s1.5-1.3,2.6-1.7s2.4-0.6,3.8-0.6h4.3v2.4h-4c-1.2,0-2.2,0.2-2.9,0.6c-0.7,0.4-1.1,1.1-1.1,1.9c0,0.8,0.3,1.4,0.9,1.8
			c0.6,0.4,1.3,0.7,2.2,0.7c0.9,0,1.7-0.2,2.4-0.6c0.7-0.4,1.3-0.9,1.8-1.5c0.4-0.6,0.7-1.4,0.8-2.2l1.1,0.5c0,1.2-0.3,2.4-0.9,3.3
			c-0.6,1-1.4,1.7-2.4,2.3C242.4,332.1,241.3,332.4,240,332.4z M248.6,331.9h-3.2v-3l-0.2-0.6v-5.7c0-1.1-0.4-2-1.1-2.7
			c-0.7-0.6-1.7-1-3-1c-0.9,0-1.8,0.2-2.6,0.6c-0.8,0.4-1.5,0.9-2,1.5l-2-2.1c0.8-0.8,1.8-1.5,2.9-2c1.1-0.5,2.4-0.7,3.7-0.7
			c1.5,0,2.7,0.3,3.8,0.8c1.1,0.5,1.9,1.2,2.6,2.2c0.6,0.9,0.9,2.1,0.9,3.4V331.9z M244.7,309.4l2.2,1c-0.2,1.2-0.6,2-1.2,2.6
			c-0.6,0.6-1.3,0.8-2,0.8c-0.5,0-1-0.1-1.5-0.3c-0.5-0.2-0.9-0.5-1.3-0.8c-0.3-0.3-0.6-0.5-0.8-0.6c-0.2-0.1-0.5-0.2-0.7-0.2
			c-0.3,0-0.5,0.2-0.8,0.5c-0.2,0.3-0.4,0.8-0.5,1.5l-2.2-1c0.2-1.2,0.6-2,1.2-2.6c0.6-0.6,1.3-0.8,2-0.8c0.5,0,1,0.1,1.5,0.3
			c0.5,0.2,0.9,0.5,1.3,0.8c0.3,0.3,0.6,0.5,0.9,0.6c0.2,0.1,0.5,0.2,0.7,0.2c0.3,0,0.5-0.2,0.7-0.5
			C244.4,310.6,244.6,310.1,244.7,309.4z"/>
		<path class="st0" d="M253.9,313.4c-0.6,0-1.1-0.2-1.5-0.6c-0.4-0.4-0.6-0.9-0.6-1.5c0-0.6,0.2-1.1,0.6-1.5
			c0.4-0.4,0.9-0.6,1.5-0.6c0.6,0,1.1,0.2,1.5,0.6c0.4,0.4,0.6,0.9,0.6,1.5c0,0.6-0.2,1.1-0.6,1.5S254.5,313.4,253.9,313.4z
			 M255.6,331.9h-3.4v-15.3h3.4V331.9z"/>
		<path class="st0" d="M264.3,329.6l2-2.1c0.7,0.7,1.5,1.3,2.5,1.7c1,0.4,1.9,0.6,3,0.6c1.1,0,1.9-0.2,2.5-0.6s1-0.9,1-1.5
			c0-0.6-0.3-1-0.8-1.3c-0.6-0.3-1.6-0.6-3-0.8c-2.2-0.3-3.9-0.8-4.9-1.5s-1.5-1.7-1.5-2.9c0-1,0.3-1.8,0.9-2.6
			c0.6-0.7,1.3-1.3,2.3-1.7s2.1-0.6,3.4-0.6c1.5,0,2.8,0.2,3.9,0.7c1.1,0.5,2.1,1.2,3,2l-2,2.2c-0.6-0.7-1.4-1.2-2.2-1.7
			s-1.7-0.6-2.7-0.6c-1,0-1.7,0.2-2.3,0.6c-0.6,0.4-0.9,0.9-0.9,1.5c0,0.5,0.3,0.9,0.8,1.1s1.5,0.5,2.9,0.7c2.2,0.3,3.9,0.9,5,1.6
			s1.6,1.8,1.6,3.2c0,1-0.3,1.9-0.9,2.6c-0.6,0.8-1.4,1.3-2.5,1.8c-1,0.4-2.3,0.6-3.6,0.6c-1.5,0-2.9-0.2-4.1-0.8
			C266.2,331.1,265.2,330.4,264.3,329.6z"/>
		<path class="st0" d="M283.4,313.4c-0.6,0-1.1-0.2-1.5-0.6c-0.4-0.4-0.6-0.9-0.6-1.5c0-0.6,0.2-1.1,0.6-1.5
			c0.4-0.4,0.9-0.6,1.5-0.6c0.6,0,1.1,0.2,1.5,0.6c0.4,0.4,0.6,0.9,0.6,1.5c0,0.6-0.2,1.1-0.6,1.5S284,313.4,283.4,313.4z
			 M285.1,331.9h-3.4v-15.3h3.4V331.9z"/>
		<path class="st0" d="M303.6,331.9h-3.4v-8.8c0-1.4-0.3-2.4-0.9-3.1c-0.6-0.7-1.4-1-2.5-1c-0.8,0-1.5,0.2-2.1,0.6
			c-0.7,0.4-1.2,1-1.6,1.8c-0.4,0.8-0.6,1.9-0.6,3.2v7.2H289v-15.3h3.4v4.7h-0.5c0.2-1.3,0.6-2.4,1.2-3.1c0.6-0.7,1.3-1.3,2.1-1.6
			c0.8-0.3,1.6-0.5,2.5-0.5c1.8,0,3.3,0.6,4.4,1.7c1.1,1.1,1.6,2.8,1.6,4.9V331.9z"/>
		<path class="st0" d="M321.8,331.9h-3.4v-8.8c0-1.4-0.3-2.4-0.9-3.1c-0.6-0.7-1.4-1-2.5-1c-0.8,0-1.5,0.2-2.1,0.6
			c-0.7,0.4-1.2,1-1.6,1.8c-0.4,0.8-0.6,1.9-0.6,3.2v7.2h-3.4v-22.1h3.4v11.5h-0.5c0.2-1.3,0.6-2.4,1.2-3.1c0.6-0.7,1.3-1.3,2.1-1.6
			c0.8-0.3,1.6-0.5,2.5-0.5c1.8,0,3.3,0.6,4.4,1.7c1.1,1.1,1.6,2.8,1.6,4.9V331.9z"/>
		<path class="st0" d="M330.3,329.6l2-2.1c0.7,0.7,1.5,1.3,2.5,1.7c1,0.4,1.9,0.6,3,0.6c1.1,0,1.9-0.2,2.5-0.6s1-0.9,1-1.5
			c0-0.6-0.3-1-0.8-1.3c-0.6-0.3-1.6-0.6-3-0.8c-2.2-0.3-3.9-0.8-4.9-1.5s-1.5-1.7-1.5-2.9c0-1,0.3-1.8,0.9-2.6
			c0.6-0.7,1.3-1.3,2.3-1.7s2.1-0.6,3.4-0.6c1.5,0,2.8,0.2,3.9,0.7c1.1,0.5,2.1,1.2,3,2l-2,2.2c-0.6-0.7-1.4-1.2-2.2-1.7
			s-1.7-0.6-2.7-0.6c-1,0-1.7,0.2-2.3,0.6c-0.6,0.4-0.9,0.9-0.9,1.5c0,0.5,0.3,0.9,0.8,1.1s1.5,0.5,2.9,0.7c2.2,0.3,3.9,0.9,5,1.6
			s1.6,1.8,1.6,3.2c0,1-0.3,1.9-0.9,2.6c-0.6,0.8-1.4,1.3-2.5,1.8c-1,0.4-2.3,0.6-3.6,0.6c-1.5,0-2.9-0.2-4.1-0.8
			C332.3,331.1,331.2,330.4,330.3,329.6z"/>
		<path class="st0" d="M355.2,332.4c-1.6,0-3.1-0.3-4.3-1s-2.2-1.7-3-2.9s-1.1-2.6-1.1-4.2c0-1.6,0.4-3,1.1-4.2
			c0.7-1.2,1.7-2.2,3-2.9c1.3-0.7,2.7-1,4.3-1c1.6,0,3.1,0.3,4.3,1c1.3,0.7,2.2,1.7,2.9,2.9c0.7,1.2,1.1,2.6,1.1,4.2
			c0,1.6-0.4,3-1.1,4.2s-1.7,2.2-2.9,2.9S356.9,332.4,355.2,332.4z M360.8,313.9h-3.1l-3.8-4.8h2.7l-3.8,4.8h-3l3.8-5.3h3.5
			L360.8,313.9z M355.2,329.5c1,0,1.8-0.2,2.5-0.7c0.7-0.5,1.3-1.1,1.7-1.9c0.4-0.8,0.6-1.7,0.6-2.7c0-1-0.2-1.9-0.6-2.7
			c-0.4-0.8-1-1.4-1.7-1.9c-0.7-0.4-1.6-0.7-2.5-0.7c-0.9,0-1.8,0.2-2.5,0.7c-0.7,0.4-1.3,1.1-1.7,1.9c-0.4,0.8-0.6,1.7-0.6,2.7
			c0,1,0.2,2,0.6,2.7c0.4,0.8,1,1.4,1.7,1.9C353.4,329.3,354.3,329.5,355.2,329.5z"/>
		<path class="st0" d="M368.5,313.4c-0.6,0-1.1-0.2-1.5-0.6c-0.4-0.4-0.6-0.9-0.6-1.5c0-0.6,0.2-1.1,0.6-1.5
			c0.4-0.4,0.9-0.6,1.5-0.6c0.6,0,1.1,0.2,1.5,0.6c0.4,0.4,0.6,0.9,0.6,1.5c0,0.6-0.2,1.1-0.6,1.5S369.1,313.4,368.5,313.4z
			 M370.2,331.9h-3.4v-15.3h3.4V331.9z"/>
	</g>
	<g>
		<path id="XMLID_56_" class="st1" d="M271.2,226h-18.1h-18.1c-4.6,0-8.3,3.7-8.3,8.3v33.2c0,4.6,3.7,8.3,8.3,8.3h18.1h18.1
			c4.6,0,8.3-3.7,8.3-8.3v-33.2C279.5,229.8,275.8,226,271.2,226 M267.6,264.1h-14.6h-14.6v-26.3h14.6h14.6V264.1z M327.9,256.9
			L299,226.1h-11v50h11.8v-32l29,32h10.9v-1.5v-47.1v-1.5h-11.8V256.9z M402.5,241.5v-7.1c0-4.6-3.7-8.3-8.3-8.3h-36.3
			c-4.6,0-8.3,3.7-8.3,8.3v33.2c0,4.6,3.7,8.3,8.3,8.3h36.3c4.6,0,8.3-3.7,8.3-8.3l0-22.4h-27.9V257h16.1v7.1h-29.1v-26.3h29.1v3.7
			H402.5z M39.8,226.1h-15H11.5H1.7v50h11.8v-19.5h11.3h15c4.6,0,8.3-3.8,8.3-8.3v-13.8C48.1,229.8,44.3,226.1,39.8,226.1
			 M36.1,244.8H24.8H13.5v-6.9h11.3h11.3V244.8z M154.7,264.1h-25.5v-38.1h-11.7v41.6c0,4.6,3.7,8.3,8.3,8.3h32.4
			c4.6,0,8.3-3.8,8.3-8.3v-41.6h-11.7V264.1z M95.2,244.8H67.7v-18.7H55.8v50h11.8v-19.4h27.5v19.4H107v-50H95.2V244.8z
			 M191.7,226.1h-11.8v50h11.8v0h30.5v-11.9h-30.5V226.1z"/>
		<g>
			<g>
				<path id="XMLID_5_" class="st1" d="M202.1,195.2c52,0,94.5-42.4,94.5-94.4c0-52-42.4-94.5-94.5-94.5c-52,0-94.4,42.4-94.4,94.5
					C107.6,152.8,150,195.2,202.1,195.2"/>
			</g>
			<g>
				<g>
					<linearGradient id="SVGID_1_" gradientUnits="userSpaceOnUse" x1="101.8631" y1="100.7969" x2="301.0048" y2="100.7969">
						<stop  offset="0" style="stop-color:#C5944D"/>
						<stop  offset="0.5" style="stop-color:#F6D376"/>
						<stop  offset="0.9949" style="stop-color:#C59135"/>
					</linearGradient>
					<path class="st2" d="M202.1,0.6c-55.2,0-100.2,45-100.2,100.2c0,55.2,45,100.2,100.2,100.2c55.2,0,100.2-45,100.2-100.2
						C302.3,45.6,257.3,0.6,202.1,0.6z M202.1,6.3c52,0,94.5,42.4,94.5,94.5c0,8.9-1.3,17.5-3.6,25.7c-0.2-0.3-0.5-0.6-0.9-0.9
						c-0.3-6-5.7-4.2-7.3-3.3c-1.6,0.9-5.3,1.8-8.4,1.4c-0.9-0.1-5.4-1.7-3.3-3.1c3.3-1.8,3.6-0.6,4-4.8c0.3-4.3,5.9-5.7,3.4,1
						c2.1-0.6,5.1-6.5-0.5-8.6c-2.2-3.7-4.1-3.3-4.1-3.3c-0.6,0-1.9,0.6-1.9,2.6c0,0.9,0.5,3.2,0,5.6c-0.4,1.6-1,3.6-4,4.1
						c2.6,1,0.3,1.8-1.1-0.3c-1.4-1.9-6.4-8.8-11.5-12.5c-3.6-2.7-12.5-7.2-12.6-11.9c0,0,0-2.3-1.4-2c-1.4,0.3-3.2,3.5-2.3,5.9
						c0.7,1.7,7.6,5.7,5.2,9c-1.9,3.1,0.8,6.2,0.8,6.2s4.7-2.6,8,0.2c3.2,2.9,6,6,6.4,7c0.5,1,2.2,2.5-2.2,3.4
						c-2.4,0.6-4.7,0.5-6,0.7c-0.9-0.1-3.1,2.2-1.4,5.1c0.6,1,1.1,1.2,2.5,2.4c0.6,5.2,7.1,3.4,7.9,3c-3.4-1.1-4.5-3-1.4-5
						c2.6-1.6,6.4-0.3,9.3,1c2.9,1.3,5.1,2,7.7,0.4c2.6-1.6,11-3,11.6-1.5c0.6,0.8,1.4,3.3-3,5.6c1.3,0,3.1-0.5,4.5-1.4
						c-3,8.5-7.2,16.4-12.4,23.6H125.4c-5.3-7.3-9.5-15.3-12.5-24c1.7,1.1,3.9,1.8,5.6,1.8c-4.8-2.3-3.8-4.8-3.2-5.6
						c0.6-1.5,9.7-0.1,12.5,1.5c2.8,1.6,5.1,0.9,8.3-0.4c3.2-1.2,7.2-2.6,10.1-1c3.4,2,2.1,3.9-1.5,5c0.9,0.4,7.9,2.2,8.6-3
						c1.5-1.2,2.1-1.4,2.7-2.4c1.8-2.9-0.6-5.1-1.5-5.1c-1.4-0.3-3.8-0.2-6.5-0.7c-4.7-1-2.9-2.4-2.4-3.4c0.5-1,3.4-4.2,6.9-7
						c3.5-2.9,8.6-0.2,8.6-0.2s2.9-3.1,0.9-6.2c-2.6-3.3,4.9-7.3,5.7-9c1-2.4-1-5.6-2.4-5.9c-1.5-0.3-1.5,2-1.5,2
						c-0.1,4.7-9.7,9.2-13.6,11.9c-5.5,3.7-10.9,10.6-12.4,12.5c-1.6,2-4.1,1.3-1.2,0.3c-3.2-0.5-3.9-2.4-4.3-4.1
						c-0.6-2.4,0-4.7,0-5.6c0-2-1.5-2.6-2.1-2.6c0,0-2.1-0.4-4.4,3.3c-6,2.1-2.7,8-0.5,8.6c-2.7-6.7,3.4-5.3,3.7-1
						c0.3,4.3,0.7,3.1,4.3,4.8c2.3,1.4-2.6,3-3.6,3.1c-3.3,0.3-7.3-0.6-9-1.4c-1.7-0.8-7.6-2.7-7.9,3.3c-0.5,0.4-0.9,0.8-1.2,1.2
						c-2.4-8.3-3.7-17-3.7-26C107.6,48.8,150,6.3,202.1,6.3z M129.3,160.9h67.7c1.9,0,3.5,1.6,3.5,3.5v5.8c0,1.9-1.6,3.5-3.5,3.5
						h-17.6v3.6h2.5v4.6h-12.3v-13.2c7,0,13.3,0,20.4,0v-2.9h-56.2C132.2,164.2,130.7,162.6,129.3,160.9z M207,181.9v-16.4h-2.5
						v-4.6h13.3v16h40.1c-2.4,1.8-5,3.5-7.6,5H207z"/>
					
						<linearGradient id="SVGID_00000062882034755511397980000000753416142485137552_" gradientUnits="userSpaceOnUse" x1="101.8472" y1="139.7284" x2="300.9882" y2="139.7284">
						<stop  offset="0" style="stop-color:#C5944D"/>
						<stop  offset="0.5204" style="stop-color:#F6D376"/>
						<stop  offset="0.9069" style="stop-color:#D29F45"/>
						<stop  offset="0.9949" style="stop-color:#C59135"/>
					</linearGradient>
					<path style="fill:url(#SVGID_00000062882034755511397980000000753416142485137552_);" d="M201.3,145.1c1.1,0.2,6.4,0.7,9.4-0.7
						c0,0,4.4-0.4,5.4-1.4c0.9-1.1,1.1-1.7,0.1-2.5l-0.8-0.6c0.3-0.4,0.6-1.1,0.6-1.9c0.1-2.9-2.3-3.8-2.9-3.9c0,0,0.4,5.3-1.3,5.6
						c-1.7,0.3-2.4-0.1-3.1-0.2c-0.7-0.1-6.5-0.7-9,0c-2.5,0.7-3.2,1.2-3.8-0.5c-0.6-1.7-0.9-3.4-0.9-4.9c0,0-3.7,1.4-2.7,4.3
						c1,2.9,2.8,3,3.5,2.9l17.3-0.3c0,0,1.1-0.1,1.9-0.9c-0.1,0.8-0.6,2.3-3.7,2.3c-4.2-0.1-14.5,0.3-14.5,0.3s-5.6-0.2-4.4-2.8
						c0,0-1.6,1.9-1.1,2.9c0.6,1,3,1.5,7.1,1.8C202.8,145,200.2,144.9,201.3,145.1z"/>
					
						<linearGradient id="SVGID_00000000212563808832338520000009534969127793281956_" gradientUnits="userSpaceOnUse" x1="101.847" y1="120.6922" x2="300.9886" y2="120.6922">
						<stop  offset="0" style="stop-color:#C5944D"/>
						<stop  offset="0.5204" style="stop-color:#F6D376"/>
						<stop  offset="0.9069" style="stop-color:#D29F45"/>
						<stop  offset="0.9949" style="stop-color:#C59135"/>
					</linearGradient>
					<path style="fill:url(#SVGID_00000000212563808832338520000009534969127793281956_);" d="M199.1,119.3c-1-3.6-4.3-4.8-6.6-3.6
						c-2.3,1.2-2.9,5.7-2.9,5.7c2-3.5,5.8,0.3,5.8,0.3c10,8.1,15.9,2.8,19.7-0.7c3.8-3.5,5.7-0.4,5.7-0.4c0-0.8-3.1-10.6-9.5-1
						C205,129.4,199.1,119.3,199.1,119.3z"/>
					
						<linearGradient id="SVGID_00000039108857034560443210000002539489043123012248_" gradientUnits="userSpaceOnUse" x1="101.8468" y1="127.2115" x2="300.9889" y2="127.2115">
						<stop  offset="0" style="stop-color:#C5944D"/>
						<stop  offset="0.5204" style="stop-color:#F6D376"/>
						<stop  offset="0.9069" style="stop-color:#D29F45"/>
						<stop  offset="0.9949" style="stop-color:#C59135"/>
					</linearGradient>
					<path style="fill:url(#SVGID_00000039108857034560443210000002539489043123012248_);" d="M224.6,124c0,0-0.9-2.5-2.4-0.6
						c-1.5,1.9-3.5-1.6-3.8-2.2c0,0-1.9,0.2-1.8,1.6c0.1,1.4,0.9,2.2-2.3,2.5c-3.2,0.3-2.6,0.4-5.8,1.3c-3.2,0.8-7.2-0.2-9-1
						c-1.8-0.8-6-0.9-8.1-0.6c-2.1,0.3-2.4-1.4-1.3-2.6c0,0-5.1,5.4-5.3,0.1c0,0-6.6,7.4,4.4,6.8c0,0-0.8,2-3.8,1.5
						c0,0,3.5,3.1,10.1-0.7c0,0-1.3,2.3-4.5,3.1c0,0,4.6,0.4,7.2-1.5c2.6-1.9,6.7-2.8,10.5-0.7c3.8,2,6.7,1.6,6.7,1.6
						s-3.5-0.9-4.1-2.6c0,0,5.6,4.2,9.7,1.1c0,0-3.2-0.3-3.4-1.7C217.8,129.5,225.8,130.5,224.6,124z"/>
					
						<linearGradient id="SVGID_00000106841303853207325940000002852627573743272092_" gradientUnits="userSpaceOnUse" x1="101.8458" y1="102.7983" x2="300.9899" y2="102.7983">
						<stop  offset="0" style="stop-color:#C5944D"/>
						<stop  offset="0.5204" style="stop-color:#F6D376"/>
						<stop  offset="0.9069" style="stop-color:#D29F45"/>
						<stop  offset="0.9949" style="stop-color:#C59135"/>
					</linearGradient>
					<path style="fill:url(#SVGID_00000106841303853207325940000002852627573743272092_);" d="M225.5,93.9c0,0-11.9,6.6-12.4,12.4
						c-0.4,5.8,4.1,6.2,7.3,4.5c3.1-1.8,5-7,4.9-11c0,0-4.4,7.3-6.3,4.3C217.2,101.1,225.5,93.9,225.5,93.9z"/>
					
						<linearGradient id="SVGID_00000012460114616521090390000001864010566445778849_" gradientUnits="userSpaceOnUse" x1="101.8468" y1="104.5429" x2="300.9888" y2="104.5429">
						<stop  offset="0" style="stop-color:#C5944D"/>
						<stop  offset="0.5204" style="stop-color:#F6D376"/>
						<stop  offset="0.9069" style="stop-color:#D29F45"/>
						<stop  offset="0.9949" style="stop-color:#C59135"/>
					</linearGradient>
					<path style="fill:url(#SVGID_00000012460114616521090390000001864010566445778849_);" d="M182.3,122.5c2.4-3,5.7-4.7,5.7-4.7
						c0.2-1.4,4.2-4.5,4.2-4.5c-0.8,0-5.7-0.5-13.2,7.9c-7.4,8.1-12.9,5.3-13.8,4.2c-1.2-1.2-2.3-4.4,0.7-8.9
						c3-4.5,7.1-8.8,9.9-18.8c2-11.1-3.7-18-4.6-18.8l-0.2,0.9c8.4,14.2-3.9,29.9-6.3,32.4c-3.2,3.5-7.7,11.6-1,16.7
						C170.4,132.7,178.7,127.5,182.3,122.5z"/>
					
						<linearGradient id="SVGID_00000003799994721685786580000006652308027314735038_" gradientUnits="userSpaceOnUse" x1="101.8468" y1="71.4976" x2="300.9887" y2="71.4976">
						<stop  offset="0" style="stop-color:#C5944D"/>
						<stop  offset="0.5204" style="stop-color:#F6D376"/>
						<stop  offset="0.9069" style="stop-color:#D29F45"/>
						<stop  offset="0.9949" style="stop-color:#C59135"/>
					</linearGradient>
					<path style="fill:url(#SVGID_00000003799994721685786580000006652308027314735038_);" d="M156.3,65.9c0,0,3.9-0.6,3.5,2.6
						c-0.3,3.2-4.1,2.2-4.1,2.2c-16.5,1.5-18.8,10.1-18.8,10.1c4.9-5.1,14.7-5.4,17-4.9c2.2,0.5,5.6,2.1,6.7,0.5
						c1.1-1.6,3.7-1.8,4.4-1.3c0.7,0.5,2.5,0.9,2.5,0.9c2.8-1,0.9-4,0.2-6.1c-0.7-2.1-1.3-4.1-1.4-8.5c-0.1-4.5-2-3.5-3.6-3.4
						c-1.5,0.2-14.7,4-14.7,4c-27,8.3-29.9,23.2-29.9,23.2C133.6,66.8,156.3,65.9,156.3,65.9z"/>
					
						<linearGradient id="SVGID_00000181078623482984996040000000356268503934977683_" gradientUnits="userSpaceOnUse" x1="101.8464" y1="104.5429" x2="300.989" y2="104.5429">
						<stop  offset="0" style="stop-color:#C5944D"/>
						<stop  offset="0.5204" style="stop-color:#F6D376"/>
						<stop  offset="0.9069" style="stop-color:#D29F45"/>
						<stop  offset="0.9949" style="stop-color:#C59135"/>
					</linearGradient>
					<path style="fill:url(#SVGID_00000181078623482984996040000000356268503934977683_);" d="M238.7,79.8l-0.2-0.9
						c-0.9,0.8-6.6,7.8-4.6,18.8c2.8,10,6.9,14.2,9.9,18.8c3,4.5,1.9,7.7,0.7,8.9c-0.9,1.1-6.3,3.9-13.8-4.2
						c-7.4-8.5-12.4-7.9-13.2-7.9c0,0,4,3.1,4.2,4.5c0,0,3.3,1.7,5.7,4.7c3.6,5,11.9,10.3,18.5,6.4c6.7-5,2.2-13.2-1-16.7
						C242.7,109.6,230.4,94,238.7,79.8z"/>
					
						<linearGradient id="SVGID_00000103255717733289643430000006703547870195644051_" gradientUnits="userSpaceOnUse" x1="101.8467" y1="55.6886" x2="300.9883" y2="55.6886">
						<stop  offset="0" style="stop-color:#C5944D"/>
						<stop  offset="0.5204" style="stop-color:#F6D376"/>
						<stop  offset="0.9069" style="stop-color:#D29F45"/>
						<stop  offset="0.9949" style="stop-color:#C59135"/>
					</linearGradient>
					<path style="fill:url(#SVGID_00000103255717733289643430000006703547870195644051_);" d="M178.6,58.7
						c17.9-0.2,19.1,16.4,19.1,16.4c2.6-9.7-5.9-16.2-5.9-16.2c12.4,4.2,13.1,17.9,13.3,25.2c0.1,7.3,4.2,1.6,4.2,1.6
						c12.3-13.4,10.5-22.7,8.8-29c-1.7-6.3-3.5-10.9-4-19.6c-0.4-8.7,6.9-13.4,6.9-13.4c-8.5,3.6-11.8,14.6-12.2,22.1
						c-0.4,7.5,2.2,13.7,1.9,19.6c-0.3,6.1-5.3-3.5-7-10.9c-2.4-9.9-10.3-12.6-10.3-12.6s4.9,6.1,3.4,9.8c-1.5,3.6-6.2,2.8-11.4-2.1
						c-3.4-3.2-7.2-5.3-7.6-5.2c0,0-2.6-0.6-1.3,3.2C177.8,51.6,178.6,58.7,178.6,58.7z"/>
					
						<linearGradient id="SVGID_00000168091130099129059930000011689934994737769895_" gradientUnits="userSpaceOnUse" x1="101.8468" y1="66.5164" x2="300.9883" y2="66.5164">
						<stop  offset="0" style="stop-color:#C5944D"/>
						<stop  offset="0.5204" style="stop-color:#F6D376"/>
						<stop  offset="0.9069" style="stop-color:#D29F45"/>
						<stop  offset="0.9949" style="stop-color:#C59135"/>
					</linearGradient>
					<path style="fill:url(#SVGID_00000168091130099129059930000011689934994737769895_);" d="M163.7,39.4c1.7,0.7,4.4-0.6,5.4,10.7
						c0.9,11.3-0.1,28.5,24.3,43c0,0,12.1,6.8,11,15.5c0,0,0.6,2.2-3.4,5.3c0,0-0.3,0.3,0,0.4c0,0,5.3-2.6,9.4,0.1
						c0,0,1.1,0,0.5-0.7c-0.5-0.7-4.5-1.1-2-7.9c2.5-6.8,7.8-19,24.7-29c21.9-14.2,14.5-44,10.8-57.3c-0.3-0.9-1.7-1.9-1.2,1
						c1.5,8.5,3.7,25.5,1.2,34.4c-3.1,11.2-6.2,9-6.7,8.5c-0.5-0.6-5.1-4-8.4-0.9c0,0,3.2,1.3,4.1,2.9c0.9,1.6,1.1,3.5-3.1,6.7
						c-4.4,3-17.8,16.6-20.4,19.4c-2.6,2.8-6,6-15.6-2.8c-8.3-7.5-14.5-11.1-11-21.6c0.3-0.9,1.1-2.9,0.8-3.8
						c-0.1-1.1-1.1-1.4-2-0.5c-1.8,2-4.7,5.9-6.2,1.9c-1.1-3.4-2.2-12.6-3-20.9c-1.1-5.9-4.4-12.3-9.1-13.5
						c-1.4-0.6-5.5-0.2-5.2,3.8C159.1,37.7,161.6,38.6,163.7,39.4z"/>
					
						<linearGradient id="SVGID_00000109736680310883670670000004747506702156809358_" gradientUnits="userSpaceOnUse" x1="101.8422" y1="134.3584" x2="300.9932" y2="134.3584">
						<stop  offset="0" style="stop-color:#C5944D"/>
						<stop  offset="0.5204" style="stop-color:#F6D376"/>
						<stop  offset="0.9069" style="stop-color:#D29F45"/>
						<stop  offset="0.9949" style="stop-color:#C59135"/>
					</linearGradient>
					<path style="fill:url(#SVGID_00000109736680310883670670000004747506702156809358_);" d="M208.3,134.4c0-2.1-1.7-3.9-3.9-3.9
						c-2.1,0-3.9,1.7-3.9,3.9c0,2.1,1.7,3.9,3.9,3.9C206.6,138.2,208.3,136.5,208.3,134.4z M206.4,132.5c1,1,0.8,2.6,0.2,3.5
						c0.1-2.3-1.3-3.7-3.3-3.8C204.3,131.5,205.7,131.9,206.4,132.5z"/>
					
						<linearGradient id="SVGID_00000183955824023374099780000005792168871981003951_" gradientUnits="userSpaceOnUse" x1="101.8465" y1="143.6753" x2="300.9886" y2="143.6753">
						<stop  offset="0" style="stop-color:#C5944D"/>
						<stop  offset="0.5204" style="stop-color:#F6D376"/>
						<stop  offset="0.9069" style="stop-color:#D29F45"/>
						<stop  offset="0.9949" style="stop-color:#C59135"/>
					</linearGradient>
					<path style="fill:url(#SVGID_00000183955824023374099780000005792168871981003951_);" d="M223,146.5c-0.9-2.1-0.7-1.6-0.6-3.9
						c0.1-2.4,0-8.2-5-7.1c0,0,1.5,5.4,0.8,6.8c-0.7,1.5,0.6,3-6.5,3.4c-7.1,0.4-16.5,0.3-16.5,0.3s-4.8,0.9-4.9-3.1
						c-0.1-4-0.3-6.3,0.4-8.3c0,0-6.1,0.1-4.4,3.8c1.7,3.7,2.5,6.5,0.6,8.2c-1.9,1.6-2.6,0.4-4.6-0.6c-2-1-1.8-2.2-4.9-1.2
						c0,0,3.6,1,5.1,4.5c1.5,3.5,4.5,4.4,9.1,2.2c4.5-2.2,9.2-7.7,22.9-1.5c0,0,5.7,3.6,14.7-1.2C229.1,148.8,223.8,148.6,223,146.5
						z"/>
					
						<linearGradient id="SVGID_00000010307497148906151370000012655396412541088664_" gradientUnits="userSpaceOnUse" x1="101.8453" y1="101.6883" x2="300.9909" y2="101.6883">
						<stop  offset="0" style="stop-color:#C5944D"/>
						<stop  offset="0.5204" style="stop-color:#F6D376"/>
						<stop  offset="0.9069" style="stop-color:#D29F45"/>
						<stop  offset="0.9949" style="stop-color:#C59135"/>
					</linearGradient>
					<path style="fill:url(#SVGID_00000010307497148906151370000012655396412541088664_);" d="M184.1,92.2c1.3,0.8,3.9,3.5,6.4,5.8
						c2.4,2.3,3.5,4.3,1.9,5.5c-1.6,1.2-5.8-3.3-5.8-3.3c0.1,5.4,4.2,9,4.2,9c5.4,3.9,11.8,2,8.3-5.6
						C195.6,96.1,184.1,92.2,184.1,92.2z"/>
				</g>
			</g>
		</g>
		<g>
			<path class="st15" d="M422.3,225.6c-4.4,0-8,3.6-8,8c0,4.4,3.6,8,8,8c4.4,0,8-3.6,8-8C430.3,229.2,426.7,225.6,422.3,225.6z
				 M422.3,240.9c-4,0-7.3-3.3-7.3-7.3c0-4,3.3-7.3,7.3-7.3c4,0,7.3,3.3,7.3,7.3C429.6,237.7,426.3,240.9,422.3,240.9z"/>
			<path class="st15" d="M426.7,238.1c-0.1-0.1-0.1-0.3-0.1-0.6l-0.1-1.8c0-0.6-0.1-1.1-0.4-1.4c-0.1-0.2-0.4-0.3-0.8-0.5
				c0.4-0.2,0.8-0.5,1-0.8c0.3-0.4,0.5-1,0.5-1.6c0-1-0.3-1.7-1-2.2c-0.6-0.4-1.3-0.6-2.3-0.6h-4.7v10.1h1.4v-4.4h3.3
				c0.6,0,1,0.1,1.3,0.4c0.3,0.3,0.5,0.8,0.5,1.5c0,0.3,0,0.7,0.1,1.3c0,0.6,0.1,1,0.2,1.2h1.7v-0.2
				C426.9,238.4,426.8,238.2,426.7,238.1z M424.7,232.9c-0.3,0.2-0.8,0.3-1.4,0.3h-3.2v-3.4h3.4c0.5,0,0.9,0.1,1.2,0.3
				c0.4,0.3,0.6,0.7,0.6,1.4C425.3,232.1,425.1,232.6,424.7,232.9z"/>
		</g>
	</g>
</g>
</svg>
