<svg height="316.227766" viewBox="0 0 41.999 42" width="316.227766" xmlns="http://www.w3.org/2000/svg"><g transform="translate(-486 -1059)"><g fill="#005aab"><path d="m0 0c-.089-.446-.375-.743-.761-.665-.398.078-.577.494-.496.88.014.088.042.169.096.242-.042-.298.077-.653.409-.719.303-.06.466.129.523.402.015.083.025.164.027.244l-1.558.308c-.193.04-.33.071-.47-.092l-.012.003.137.681.011-.003c.027-.186.286-.216.443-.247l1.302-.257c.154-.031.404-.101.507.055l.01-.001z" transform="matrix(1.3333 0 0 -1.3333 490.99 1076.8)"/><path d="m0 0c-.199.159-.273.448-.266.693.009.231.091.473.268.624.209.179.447.164.699.154l.938-.028c.16-.006.417-.039.489.137h.01l-.022-.663h-.009c-.063.176-.319.165-.477.168l-.941.03c-.468.017-.692-.172-.704-.53-.006-.197.067-.399.227-.518.106-.081.193-.08.32-.084l1.06-.037c.156-.004.414-.033.488.139h.01l-.024-.661-.01-.002c-.06.18-.318.167-.48.171l-1.328.045c-.158.004-.414.034-.486-.142h-.011l.017.512z" transform="matrix(1.3333 0 0 -1.3333 487.9 1079.9)"/><path d="m0 0c.12.152.173.378.148.572-.025.197-.135.437-.376.406-.479-.061-.315-1.252-.961-1.333-.376-.05-.775.294-.846.832-.028.213-.024.427.023.633l.425.16c-.152-.228-.226-.527-.19-.798.024-.196.183-.478.426-.45.546.073.292 1.251 1.032 1.346.44.054.667-.368.722-.792.023-.172.021-.353-.009-.526z" transform="matrix(1.3333 0 0 -1.3333 490.38 1082.8)"/><path d="m0 0-.19.663.949-.093zm-.221-.171-.427-.314c-.212-.157-.24-.194-.365-.05l-.009-.004.199-.688.009.003c.045.219.218.334.388.464l1.536 1.191-.151.53-.012-.003c-.005-.175-.164-.154-.299-.14l-1.575.162c-.213.02-.42.023-.574.191l-.009-.003.175-.618.011.003c.016.179.12.183.331.164l.526-.038z" transform="matrix(1.3333 0 0 -1.3333 489.89 1085.1)"/><path d="m0 0c-.178-.086-.306-.143-.322-.358l-.009-.004-.273.555.01.004c.178-.118.306-.056.482.03l1.263.609c.179.087.305.148.32.357l.01.006.225-.459-.004-.001c-.032-.03-.042-.051-.057-.086l-.041-.075-.897-1.854 1.2.58c.179.085.306.143.318.356l.01.004.272-.554-.009-.003c-.176.117-.301.056-.48-.03l-1.775-.86c-.033.26.024.408.135.634l.847 1.742z" transform="matrix(1.3333 0 0 -1.3333 489.67 1087.1)"/><path d="m0 0c-.147-.13-.256-.221-.212-.432l-.006-.006-.418.458.007.008c.206-.065.312.027.458.158l1.045.933c.147.13.251.224.207.429l.007.007.346-.38-.002-.001c-.025-.036-.027-.061-.032-.098l-.019-.083-.346-2.028.991.886c.147.131.254.221.207.429l.009.007.415-.457-.009-.007c-.201.064-.305-.026-.451-.159l-1.469-1.313c-.106.243-.091.399-.046.648l.329 1.904z" transform="matrix(1.3333 0 0 -1.3333 492.31 1091.7)"/><path d="m0 0-.547.425.821.48zm-.077-.264-.157-.506c-.076-.25-.078-.298-.261-.252l-.008-.01.57-.439.009.008c-.097.202-.026.395.033.6l.533 1.861-.44.34-.006-.01c.099-.145-.044-.219-.16-.289l-1.366-.79c-.185-.109-.353-.227-.579-.184l-.004-.008.511-.393.004.008c-.093.152-.011.218.169.326l.449.278z" transform="matrix(1.3333 0 0 -1.3333 496.18 1094.3)"/><path d="m0 0c-.104-.173-.174-.29-.069-.475l-.003-.008-.605.345.006.01c.184-.031.297.201.376.337l.789 1.347-.268.154c-.131.074-.287.121-.433.089l-.01.006.317.297.009-.006c.028-.037.067-.059.103-.087l.078-.044 1.136-.655c.052-.029.101-.054.153-.058l.008-.005-.308-.304-.008.005c.022.129-.092.215-.19.273l-.275.155z" transform="matrix(1.3333 0 0 -1.3333 497.67 1096.3)"/><path d="m0 0c.065.147.191.371.054.503l.003.009.613-.267-.003-.008c-.19.008-.274-.237-.337-.381l-.534-1.205c-.064-.145-.186-.368-.054-.5l-.004-.008-.612.266.005.009c.187-.013.271.234.334.377z" transform="matrix(1.3333 0 0 -1.3333 499.88 1095.4)"/><path d="m0 0c.536-.147.719-.709.58-1.199-.141-.502-.575-.785-1.091-.641-.534.147-.732.725-.601 1.194.145.509.586.793 1.112.646m.094.237c-.708.214-1.419-.165-1.599-.806-.197-.689.238-1.323.909-1.51.674-.188 1.388.153 1.58.84.172.605-.178 1.282-.89 1.476" transform="matrix(1.3333 0 0 -1.3333 502.49 1095.9)"/><path d="m0 0c-.015-.196-.029-.335.151-.456l-.002-.01-.622.046v.009c.194.095.207.235.221.429l.103 1.389c.014.197.026.335-.15.453v.01l.514-.039v-.002c.011-.043.024-.06.046-.091l.044-.074 1.165-1.704.101 1.323c.014.193.028.334-.152.451l.001.008.618-.043-.002-.011c-.188-.09-.199-.23-.214-.425l-.146-1.952c-.244.101-.343.223-.484.432l-1.09 1.604z" transform="matrix(1.3333 0 0 -1.3333 504.56 1098.6)"/><path d="m0 0-.692-.069.257.908zm.128-.248.239-.47c.12-.234.152-.27-.013-.362l.001-.01.72.072-.003.01c-.21.081-.294.268-.393.457l-.913 1.709-.552-.056v-.01c.175-.034.124-.187.086-.318l-.436-1.508c-.057-.204-.096-.406-.289-.527v-.01l.645.065v.011c-.176.045-.161.148-.107.35l.13.509z" transform="matrix(1.3333 0 0 -1.3333 509.21 1097.7)"/><path d="m0 0c.238.049.415.179.547.365l.01.003-.054-.495-1.4-.371-.004.011c.156.106.07.351.028.503l-.34 1.271c-.042.155-.089.408-.28.425l-.003.011.651.171.002-.009c-.156-.111-.065-.355-.025-.505l.398-1.47z" transform="matrix(1.3333 0 0 -1.3333 512.19 1098.3)"/><path d="m0 0c-.039-.251-.253-.461-.469-.579-.204-.11-.455-.162-.677-.087-.261.087-.369.296-.49.517l-.451.82c-.075.137-.176.372-.368.345l-.003.009.588.318.004-.009c-.122-.142.018-.357.094-.494l.451-.819c.225-.406.503-.504.82-.33.175.093.311.258.334.458.016.129-.027.205-.089.313l-.508.924c-.075.138-.182.372-.367.348l-.005.006.587.319.008-.009c-.126-.141.016-.356.095-.496l.635-1.157c.077-.137.181-.371.372-.344l.005-.009-.455-.245z" transform="matrix(1.3333 0 0 -1.3333 516.82 1096.3)"/><path d="m0 0c.126-.15.215-.261.427-.225l.008-.007-.481-.398-.004.009c.072.202-.018.309-.145.459l-.902 1.072c-.125.146-.215.254-.424.219l-.006.008.395.327.003-.003c.036-.024.057-.028.096-.034l.083-.023 2.033-.417-.857 1.014c-.126.152-.214.26-.425.223l-.005.008.476.394.005-.01c-.072-.196.017-.303.145-.451l1.266-1.505c-.247-.095-.405-.076-.652-.02l-1.91.397z" transform="matrix(1.3333 0 0 -1.3333 518.37 1094.9)"/><path d="m0 0c-.12.106-.298.295-.467.206l-.007.006.445.496.007-.007c-.067-.176.142-.331.26-.434l.993-.875c.119-.106.295-.292.463-.203l.009-.009-.446-.495-.009.008c.07.171-.139.328-.256.431z" transform="matrix(1.3333 0 0 -1.3333 519.6 1091.3)"/><path d="m0 0c-.149.221-.319.481-.516.354l-.009.004.3.426 1.458-2.129c-.273-.107-.344-.158-.63-.083l-1.486.382c-.185.049-.385.12-.571.063l-.008.006.293.419.032-.027c.064-.045.244-.088.325-.106l1.577-.414z" transform="matrix(1.3333 0 0 -1.3333 521.57 1089)"/><path d="m0 0 .235.38c.12.199.161.447.099.673l.002.008.348-.341-.646-1.308-.009.005c.023.187-.223.283-.365.352l-1.192.576c-.146.07-.368.201-.507.068l-.008.007.492 1.003c.026.052.059.103.058.155l.002.01.373-.18-.005-.009c-.162-.043-.237-.165-.308-.309-.055-.109-.106-.221-.136-.33l.588-.286.184.374c.024.05.049.1.049.147l.003.01.337-.164-.004-.009c-.116-.006-.177-.14-.227-.236l-.113-.232z" transform="matrix(1.3333 0 0 -1.3333 524.02 1088.4)"/><path d="m0 0c.147.445.461.61.766.512.293-.095.44-.425.416-.717l.762.281c.219.083.462.236.647.386l-.102-.304c-.057-.177-.137-.273-.293-.332l-.64-.242-.572-.152c.047.279.025.629-.29.73-.241.077-.45-.085-.512-.31-.023-.077-.037-.153-.048-.233l1.5-.484c.154-.05.392-.15.509.001l.009-.004-.208-.636-.01.003c-.005.189-.261.247-.411.298l-1.262.404c-.154.052-.39.154-.512.006l-.009.002z" transform="matrix(1.3333 0 0 -1.3333 522.55 1084.8)"/><path d="m0 0c-.16-.112-.275-.313-.307-.507-.033-.196.003-.456.243-.493.475-.08.665 1.107 1.307 1.003.374-.06.655-.504.568-1.041-.034-.21-.102-.416-.206-.6l-.451-.028c.209.173.369.437.413.706.032.197-.037.512-.28.552-.541.088-.642-1.113-1.378-.993-.438.071-.531.542-.462.963.028.172.082.344.161.501z" transform="matrix(1.3333 0 0 -1.3333 523.8 1081.8)"/><path d="m0 0c-.162.009-.418.047-.495-.125h-.008l.037.659h.01c.057-.177.319-.172.476-.18l1.325-.075c.159-.009.414-.045.492.124h.01l-.038-.66-.011.001c-.053.178-.313.171-.472.181z" transform="matrix(1.3333 0 0 -1.3333 523.94 1081)"/><path d="m0 0c.203.011.34.015.438.207l.012.001.037-.693h-.013c-.075.171-.331.138-.49.127l-1.568-.082.017-.309c.007-.148.056-.303.163-.405v-.01l-.424.1-.002.01c.017.04.016.087.018.132l-.005.089-.071 1.301c-.002.059-.008.113-.032.159l-.001.011.426-.092v-.009c-.121-.052-.131-.193-.126-.307l.017-.314z" transform="matrix(1.3333 0 0 -1.3333 525.74 1078.6)"/><path d="m0 0c.206.041.309.061.401.261l.011.005.139-.669-.011-.002c-.122.15-.341.081-.504.048l-.51-.104-.805-.754c-.133-.123-.233-.214-.289-.396l-.063.311c-.023.109-.019.214.044.275l.787.732-.729.293c-.098.041-.28.086-.335-.125l-.009-.001-.124.598 1.451-.583z" transform="matrix(1.3333 0 0 -1.3333 525.32 1075.8)"/><path d="m0 0c0-.166-.137-.302-.304-.302-.171 0-.307.136-.307.302 0 .167.136.303.307.303.167 0 .304-.136.304-.303" transform="matrix(1.3333 0 0 -1.3333 491.01 1072.5)"/><path d="m0 0c0-.166-.138-.302-.305-.302-.169 0-.306.136-.306.302 0 .167.137.303.306.303.167 0 .305-.136.305-.303" transform="matrix(1.3333 0 0 -1.3333 523.84 1072.5)"/><path d="m0 0h-.299v.717h-.358v-1.858c-.121-.131-.327-.123-.327-.123h-1.006c-.015 0-.027.013-.027.027v1.451h1.077v.288h-1.435l.002-1.738c0-.173.141-.31.314-.31h1.065s.176-.016.337.075v-1h.358v2.185h.299v-2.185h.357v3.188h-.357z" transform="matrix(1.3333 0 0 -1.3333 508.19 1061)"/><path d="m492.74 1070.1 1.2107-1.3307 1.068.9547.32-.352-1.068-.9533 1.2107-1.3254-.288-.2573-2.74 3.0093z"/><path d="m0 0c.128-.115.328-.106.445.023l1.144 1.256c.117.128.106.326-.022.442l-.898.804-.241-.264.365-.324-1.088-1.195-.364.325-.239-.262zm1.007 1.744.32-.286c.01-.01.012-.027.001-.037l-1.051-1.155c-.01-.011-.026-.012-.038-.002l-.32.286z" transform="matrix(1.3333 0 0 -1.3333 492.17 1068.9)"/><path d="m500.28 1061.2-.436.192 1.268 2.816.436-.1907-.71733-1.596.576-.256-.15734-.348-.576.2547z"/><path d="m0 0-.353.784-.326-.145.352-.783c.071-.158.258-.229.417-.158l1.725.763-.118.261-1.662-.735c-.013-.007-.029 0-.035.013" transform="matrix(1.3333 0 0 -1.3333 499.59 1065.7)"/><path d="m0 0-.127.282-.326-.144.127-.283c.376-.835-.353-1.364-.404-1.4l.319-.121c.167.147.509.498.539.949.358-.278.848-.261 1.07-.234l.122.314c-.074-.016-.946-.191-1.32.637" transform="matrix(1.3333 0 0 -1.3333 498.54 1062.6)"/><path d="m521.04 1068.1-.32133-.3387-1.2173 1.128-.39333-.4173 1.216-1.128-.32133-.3413-1.2147 1.1293-.68667-.7267-.27733.2587 2.724 2.884.276-.2573-1.0013-1.0614z"/><path d="m0 0c-.371-.343-.67-.451-.67-.451l.243-.259s.301.109.669.452l.926.858-.002.002h.002l-1.616 1.711-.207-.193 1.372-1.455z" transform="matrix(1.3333 0 0 -1.3333 521.39 1068.5)"/><path d="m516.69 1063.9.15467-.352-.58267-.2493.38267-.876-.43734-.188-1.0053 2.2973.43867.188.468-1.0693z"/><path d="m515.56 1064.9-2.7693-1.192-.152.352 2.3307 1.0027-.47066 1.0773.43866.1893.62267-1.428z"/><path d="m0 0-.83.358.143.327-.33.142-.143-.327-.83.357-.116-.266.405-.174c-.149-.07-.269-.187-.338-.341-.162-.369.043-.813.456-.991.413-.177.879-.022 1.042.347.067.154.07.323.021.478l.405-.174zm-1.467-.65c-.23.099-.338.362-.239.586.097.225.365.326.596.227.229-.099.338-.361.239-.586-.098-.225-.365-.327-.596-.227" transform="matrix(1.3333 0 0 -1.3333 515.71 1062.4)"/><path d="m0 0c0-8.697-7.052-15.75-15.749-15.75-8.699 0-15.75 7.053-15.75 15.75 0 8.698 7.051 15.75 15.75 15.75 8.697 0 15.749-7.052 15.749-15.75m-15.749 15.535c-8.58 0-15.535-6.955-15.535-15.535 0-8.579 6.955-15.534 15.535-15.534 8.578 0 15.534 6.955 15.534 15.534 0 8.58-6.956 15.535-15.534 15.535" transform="matrix(1.3333 0 0 -1.3333 528 1080)"/><path d="m0 0c0-6.304-5.11-11.413-11.413-11.413-6.304 0-11.415 5.109-11.415 11.413s5.111 11.414 11.415 11.414c6.303 0 11.413-5.11 11.413-11.414m-11.413 11.199c-6.186 0-11.2-5.014-11.2-11.199s5.014-11.199 11.2-11.199c6.183 0 11.197 5.014 11.197 11.199s-5.014 11.199-11.197 11.199" transform="matrix(1.3333 0 0 -1.3333 522.22 1080)"/><path d="m506.39 1071.2v.3213l.97067-.3213z"/><path d="m0 0c.268.28.547.245.547.126 0-.12-.138-.263-.138-.263h-1.727l-.947 1.364c-.236.351-.538.502-1.039.502h-2.544v-4.107c1.546.001 5.352.004 5.8 0 1.713-.016 2.048-.746 2.048-.746.359.568 1.051.743 2.117.744h5.784l.001 4.109h-2.581c-.497 0-.8-.151-1.036-.502h-.001l-.966-1.364h-1.434v1.214l.981.959h-1.012l.256.224h-2.052c-.413 0-.739-.168-.857-.403h-.722c-.664 0-.907-.374-.771-.866zm9.139-1.623h-4.832c-1.288 0-1.889-.087-2.298-.533-.442.428-.785.531-2.074.531h-5.026v2.595h1.58c.156.004.287-.033.372-.078.063-.035.177-.112.261-.226.105-.146 1.041-1.517 1.041-1.517h2.7s.251.52.405.882c.158.366.103.623-.231.648-.281.022-.458-.046-.488-.161l-.12.409c-.072.208-.02.359.269.359h.874c0-.009.018.283.499.283h1.442l-.406-.374v-2.046h2.798s.89 1.371.995 1.517c.081.114.196.191.26.226.084.045.215.083.371.086l1.608-.001z" transform="matrix(1.3333 0 0 -1.3333 504.3 1072.9)"/></g><g fill="#00a65e"><path d="m0 0-5.298.002c-1.637-.012-1.842-1.093-1.842-1.093-.335 1.225-1.912 1.093-1.912 1.093h-5.179v7.595h4.993c1.662-.031 2.103-1.345 2.103-1.345.544 1.332 2.261 1.344 2.261 1.344l4.874.001zm-5.212 8.352c-1.455-.045-1.913-.899-1.913-.899-.463.895-1.864.896-1.864.896h-6v-9.099h5.876c.801 0 1.084-.377 1.179-.647h1.624c.281.682 1.099.642 1.099.642h5.975v9.107z" transform="matrix(1.3333 0 0 -1.3333 516.48 1088.3)"/><path d="m502.89 1082.8h-2.9187v2.9387h4.0173v-.01h-.004v-1.92h1.0173v1.9293h4.008v-1.9293h1.0147v1.9253h4.012v-1.0147h-2.912v-.912h2.9133v-3.0493h-4.0133v2.0373h-1.0147v-2.0373h-1.0987v2.036h-1.8173v-2.036h-1.0947v2.0373h-1.012v-2.0373h-4.0187v1.012h2.9213zm.001 1.9293h-1.824v-.9186h1.824zm5.024 0h-1.8173v-.92h1.8173zm3.2093-2.9586h1.8173v1.028h-1.8173z"/><path d="m0 0c.105.036.197.111.25.201h.004v-.649c0-.066-.006-.118.057-.158v-.005h-.242v.005c.072.034.066.088.066.158v.445h-.135z" transform="matrix(1.3333 0 0 -1.3333 505.38 1086.8)"/><path d="m0 0c.188.038.357.208.357.4 0 .116-.066.246-.201.246-.099 0-.169-.078-.169-.173 0-.107.07-.189.177-.189.043 0 .086.013.123.037l-.079-.097c-.029-.01-.063-.015-.095-.015-.136 0-.243.101-.243.237 0 .17.138.282.302.282.183 0 .302-.143.302-.317 0-.13-.071-.259-.174-.34-.106-.084-.225-.126-.357-.143z" transform="matrix(1.3333 0 0 -1.3333 506.18 1087.6)"/><path d="m0 0c-.102 0-.185.005-.248.008l.248.417zm0-.091v-.03c0-.06.007-.101-.057-.123v-.005h.226v.005c-.052.025-.054.079-.054.129v.024h.093l.056.139c-.04-.035-.094-.048-.149-.048v.51h-.16l-.361-.601z" transform="matrix(1.3333 0 0 -1.3333 507.41 1087.3)"/><path d="m0 0c-.078-.011-.171-.07-.228-.122-.079-.074-.126-.171-.126-.28 0-.119.068-.247.204-.247.103 0 .162.078.162.176 0 .113-.06.191-.179.191-.045 0-.089-.013-.128-.038l.075.093c.03.015.065.023.102.023.145 0 .248-.099.248-.244 0-.163-.13-.277-.292-.277-.183 0-.309.146-.309.321 0 .275.278.454.527.476z" transform="matrix(1.3333 0 0 -1.3333 508.5 1086.7)"/></g></g></svg>