<?xml version="1.0" encoding="UTF-8"?>
<svg id="Layer_1" data-name="Layer 1" xmlns="http://www.w3.org/2000/svg" viewBox="0 0 215.37 56.81">
  <defs>
    <style>
      .cls-1 {
        fill: #ed1a3b;
      }

      .cls-1, .cls-2 {
        stroke-width: 0px;
      }

      .cls-2 {
        fill: #fff;
      }
    </style>
  </defs>
  <rect class="cls-2" x="72.79" width="1.42" height="56.81"/>
  <g>
    <g>
      <path class="cls-2" d="M6.36,8.22s4.55,4.84.61,9.28c0,0-4.19-3.6-.61-9.28Z"/>
      <path class="cls-2" d="M23.25,43.96s-3.24-.84-3.2-4.38c0,0,1.66.56,2.5,2.28.41.84.56,1.4.69,2.09Z"/>
      <path class="cls-2" d="M18.59,42.46s-2.8-2.09-1.24-5.26c0,0,1.07.77,1.34,2.8.14,1.03.04,1.94-.1,2.46Z"/>
      <path class="cls-2" d="M14.17,39.43s-3.17-2.75-1.35-6.37c0,0,1.66,1.44,1.66,4.33,0,.87-.14,1.49-.31,2.04Z"/>
      <path class="cls-2" d="M9.6,33.74s-3.01-5.41,1.67-8.8c0,0,1.26,3.16.05,6.15-.36.9-.99,1.76-1.72,2.65Z"/>
      <path class="cls-2" d="M7.86,25.64s-2.57-6.94,3.59-10.1c0,0,1.25,3.54-.59,6.82-.92,1.64-2.11,2.62-3,3.29Z"/>
      <path class="cls-2" d="M6.46,25.87S8.04,17.26.09,14.42c0,0-.8,5.14,2.33,8.43,1.73,1.82,3.09,2.47,4.03,3.01Z"/>
      <path class="cls-2" d="M8.69,34.23s-.39-7.41-7.32-7.91c0,0-.04,3.29,2.75,5.81,1.41,1.27,3.39,1.88,4.57,2.09Z"/>
      <path class="cls-2" d="M13.35,40.69s-1.99-5.29-6.99-4.73c0,0,.63,2.34,3.21,3.7,1.35.71,2.47.91,3.77,1.03Z"/>
      <path class="cls-2" d="M18.79,43.33s-2.97-3.02-6.88-.81c0,0,1.07,1.1,3.36,1.31,1.16.11,2.46-.17,3.52-.5Z"/>
      <path class="cls-2" d="M23.69,44.39s-2.69-1.43-5.04.81c0,0,1.31.43,2.72.18.92-.16,1.73-.52,2.33-.99Z"/>
    </g>
    <g>
      <path class="cls-2" d="M55.83,8.22s-4.55,4.84-.61,9.28c0,0,4.19-3.6.61-9.28Z"/>
      <path class="cls-2" d="M38.94,43.96s3.24-.84,3.2-4.38c0,0-1.66.56-2.5,2.28-.41.84-.56,1.4-.69,2.09Z"/>
      <path class="cls-2" d="M43.6,42.46s2.8-2.09,1.24-5.26c0,0-1.07.77-1.34,2.8-.14,1.03-.04,1.94.1,2.46Z"/>
      <path class="cls-2" d="M48.01,39.43s3.17-2.75,1.35-6.37c0,0-1.66,1.44-1.66,4.33,0,.87.14,1.49.31,2.04Z"/>
      <path class="cls-2" d="M52.59,33.74s3.01-5.41-1.67-8.8c0,0-1.26,3.16-.05,6.15.36.9.99,1.76,1.72,2.65Z"/>
      <path class="cls-2" d="M54.33,25.64s2.57-6.94-3.59-10.1c0,0-1.25,3.54.59,6.82.92,1.64,2.11,2.62,3,3.29Z"/>
      <path class="cls-2" d="M55.73,25.87s-1.58-8.6,6.37-11.44c0,0,.8,5.14-2.33,8.43-1.73,1.82-3.09,2.47-4.03,3.01Z"/>
      <path class="cls-2" d="M53.5,34.23s.39-7.41,7.32-7.91c0,0,.04,3.29-2.75,5.81-1.41,1.27-3.39,1.88-4.57,2.09Z"/>
      <path class="cls-2" d="M48.84,40.69s1.99-5.29,6.99-4.73c0,0-.63,2.34-3.21,3.7-1.35.71-2.47.91-3.77,1.03Z"/>
      <path class="cls-2" d="M43.4,43.33s2.97-3.02,6.88-.81c0,0-1.07,1.1-3.36,1.31-1.16.11-2.46-.17-3.52-.5Z"/>
      <path class="cls-2" d="M38.5,44.39s2.69-1.43,5.04.81c0,0-1.31.43-2.72.18-.92-.16-1.73-.52-2.33-.99Z"/>
    </g>
  </g>
  <g>
    <path class="cls-2" d="M22.6,49.79h-2.12v-1.75h6.17v1.75h-2.12v6.83h-1.93v-6.83Z"/>
    <path class="cls-2" d="M27.77,48.04h3.89c1.27,0,2.14.89,2.14,2.15v.34c0,.84-.45,1.45-1.16,1.75v.09c.72.28,1.17.88,1.17,1.7v.39c0,1.25-.89,2.15-2.15,2.15h-3.89v-8.58ZM31.34,51.49c.31,0,.53-.24.53-.58v-.75c0-.31-.21-.54-.53-.54h-1.63v1.87h1.63ZM31.34,55.04c.31,0,.54-.23.54-.55v-.88c0-.34-.23-.58-.54-.58h-1.63v2h1.63Z"/>
    <path class="cls-2" d="M35.33,48.04h3.38c1.77,0,3,1.21,3,2.95v2.68c0,1.74-1.23,2.95-3,2.95h-3.38v-8.58ZM38.71,54.87c.63,0,1.06-.44,1.06-1.1v-2.87c0-.66-.43-1.1-1.06-1.1h-1.44v5.08h1.44Z"/>
  </g>
  <path class="cls-1" d="M31.09,17.81c-3.14-5.88-9.33-9.89-16.47-9.89l2.54,24.18,12.09,6.03,1.83.91,1.83-.91,12.09-6.03,2.54-24.18c-7.13,0-13.33,4.01-16.47,9.89Z"/>
  <g>
    <g>
      <path class="cls-2" d="M30.23,13.8l-.65-3.35c-3.66-3.97-8.78-6.58-14.51-6.97l.24,2.28c6.11.36,11.48,3.44,14.92,8.05Z"/>
      <path class="cls-2" d="M29.11,8.01l-.46-2.36C25.25,2.77,21.09.79,16.5.04l.2,1.92c4.76.73,9.05,2.9,12.4,6.05Z"/>
    </g>
    <g>
      <path class="cls-2" d="M31.98,13.8l.65-3.35c3.66-3.97,8.78-6.58,14.51-6.97l-.24,2.28c-6.11.36-11.48,3.44-14.92,8.05Z"/>
      <path class="cls-2" d="M33.1,8.01l.46-2.36C36.95,2.77,41.11.79,45.7.04l-.2,1.92c-4.76.73-9.05,2.9-12.4,6.05Z"/>
    </g>
  </g>
  <path class="cls-2" d="M87.08,30.54h-2.8v-2.31h8.15v2.31h-2.8v9.02h-2.55v-9.02Z"/>
  <path class="cls-2" d="M93.9,28.23h2.56v4.37h3.14v-4.37h2.56v11.32h-2.56v-4.66h-3.14v4.66h-2.56v-11.32Z"/>
  <path class="cls-2" d="M106.64,28.23h3.6l2.85,11.32h-2.65l-.51-2.38h-2.96l-.51,2.38h-2.66l2.85-11.32ZM109.43,35l-.95-4.44h-.09l-.95,4.44h1.98Z"/>
  <path class="cls-2" d="M114.72,28.23h2.56v11.32h-2.56v-11.32Z"/>
  <path class="cls-2" d="M124.22,28.23h5.14c1.67,0,2.83,1.17,2.83,2.84v.45c0,1.1-.59,1.91-1.53,2.31v.11c.95.37,1.54,1.16,1.54,2.25v.51c0,1.66-1.18,2.85-2.85,2.85h-5.14v-11.32ZM128.93,32.77c.41,0,.69-.31.69-.76v-.99c0-.41-.28-.71-.69-.71h-2.15v2.46h2.15ZM128.93,37.47c.41,0,.71-.3.71-.72v-1.16c0-.45-.3-.76-.71-.76h-2.15v2.65h2.15Z"/>
  <path class="cls-2" d="M134.21,28.23h2.56v11.32h-2.56v-11.32Z"/>
  <path class="cls-2" d="M139.07,28.23h3.47l2.56,7.7h.14l-.07-7.7h2.49v11.32h-3.47l-2.56-7.7h-.14l.07,7.7h-2.49v-11.32Z"/>
  <path class="cls-2" d="M149.95,28.23h2.56v4.37h3.14v-4.37h2.56v11.32h-2.56v-4.66h-3.14v4.66h-2.56v-11.32Z"/>
  <path class="cls-2" d="M165.15,28.23h4.46c2.34,0,3.96,1.6,3.96,3.89v3.54c0,2.29-1.63,3.89-3.96,3.89h-4.46v-11.32ZM169.61,37.25c.84,0,1.4-.58,1.4-1.46v-3.79c0-.88-.57-1.46-1.4-1.46h-1.9v6.71h1.9Z"/>
  <path class="cls-2" d="M196.22,28.23h3.47l2.56,7.7h.14l-.07-7.7h2.49v11.32h-3.47l-2.56-7.7h-.14l.07,7.7h-2.49v-11.32Z"/>
  <path class="cls-2" d="M206.73,35.92v-3.92c0-2.32,1.81-4.01,4.39-4.01s4.25,1.51,4.25,3.62v.72h-2.59v-.85c0-.68-.67-1.19-1.64-1.19-1.06,0-1.8.67-1.8,1.57v4.03c0,.96.72,1.64,1.84,1.64.81,0,1.44-.37,1.59-.93v-.81h-1.68v-2h4.29v5.75h-2.26l-.17-1.1h-.08c-.55.81-1.43,1.29-2.56,1.29-2.08,0-3.55-1.59-3.55-3.82Z"/>
  <polygon class="cls-2" points="111.2 24.95 109.69 27.53 107.58 27.53 108.49 24.95 111.2 24.95"/>
  <polygon class="cls-2" points="134.4 27.53 132.88 24.95 135.61 24.95 136.5 27.53 134.4 27.53"/>
  <path class="cls-2" d="M182.93,26.92v.88c0,.09-.02.17-.05.24-.03.07-.08.12-.15.16-.04.02-.12.03-.2.04h-1.38v7.74c0,.86-.68,1.5-1.66,1.5s-1.66-.64-1.66-1.5v-7.74h-2.55v7.6c0,2.34,1.73,3.96,4.2,3.96s4.22-1.63,4.22-3.96v-6.37c.31-.15.56-.36.75-.65.2-.3.29-.67.29-1.1v-.79h-1.83Z"/>
  <path class="cls-2" d="M193.06,29.12c.1-.1.19-.21.27-.32.2-.3.29-.67.29-1.1v-.79h-1.83v.88c0,.09-.02.17-.05.24-.03.07-.09.12-.16.16-.05.03-.12.04-.2.04-.47-.14-.97-.23-1.52-.23-2.59,0-4.4,1.68-4.4,4.01v3.79c0,2.32,1.81,4.01,4.4,4.01s4.42-1.68,4.42-4.01v-3.79c0-1.16-.45-2.16-1.23-2.87ZM191.69,35.92c0,.91-.74,1.57-1.81,1.57s-1.8-.67-1.8-1.57v-4.05c0-.91.74-1.57,1.8-1.57s1.81.67,1.81,1.57v4.05Z"/>
  <g>
    <path class="cls-2" d="M89.31,11.28h-4.25v4.95h-.91v1.42h.91v4.95h4.25c2.62,0,4.46-1.71,4.46-4.18v-2.97c0-2.46-1.84-4.18-4.46-4.18ZM92.18,18.48c0,1.58-1.18,2.69-2.87,2.69h-2.66v-3.52h2.6v-1.42h-2.6v-3.52h2.66c1.7,0,2.87,1.1,2.87,2.69v3.09Z"/>
    <path class="cls-2" d="M98.52,11.28l-3.72,11.32h1.64l.92-2.94h4.33l.91,2.94h1.66l-3.72-11.32h-2.01ZM97.77,18.28l1.71-5.52h.08l1.7,5.52h-3.5Z"/>
    <rect class="cls-2" x="105.98" y="11.28" width="1.59" height="11.32"/>
    <polygon class="cls-2" points="121.77 16.09 116.74 16.09 116.74 11.28 115.15 11.28 115.15 22.6 116.74 22.6 116.74 17.51 121.77 17.51 121.77 22.6 123.36 22.6 123.36 11.28 121.77 11.28 121.77 16.09"/>
    <path class="cls-2" d="M130.05,11.05c-2.73,0-4.64,1.8-4.64,4.35v3.09c0,2.55,1.91,4.35,4.64,4.35s4.66-1.8,4.66-4.35v-3.09c0-2.55-1.93-4.35-4.66-4.35ZM133.1,18.54c0,1.67-1.26,2.86-3.04,2.86s-3.04-1.19-3.04-2.86v-3.2c0-1.67,1.26-2.86,3.04-2.86s3.04,1.19,3.04,2.86v3.2Z"/>
    <rect class="cls-2" x="98.78" y="23.33" width="1.5" height="1.5"/>
    <rect class="cls-2" x="129.3" y="23.33" width="1.5" height="1.5"/>
    <path class="cls-2" d="M140.94,21.4c-1.81,0-3.06-1.19-3.06-2.86v-3.2c0-1.67,1.25-2.86,3.06-2.86,1.54,0,2.68.76,2.91,1.87h1.62c-.25-1.96-2.03-3.3-4.51-3.3-2.75,0-4.67,1.8-4.67,4.35v3.09c0,2.55,1.92,4.35,4.67,4.35,2.48,0,4.27-1.34,4.51-3.3h-1.62c-.23,1.11-1.37,1.87-2.91,1.87Z"/>
  </g>
</svg>